<svg xmlns="http://www.w3.org/2000/svg" xmlns:xlink="http://www.w3.org/1999/xlink" width="500" zoomAndPan="magnify" viewBox="0 0 375 149.999998" height="200" preserveAspectRatio="xMidYMid meet" version="1.0"><defs><clipPath id="3e42cb813b"><path d="M 0.953125 11.25 L 374.046875 11.25 L 374.046875 138.75 L 0.953125 138.75 Z M 0.953125 11.25 " clip-rule="nonzero"/></clipPath></defs><g clip-path="url(#3e42cb813b)"><path fill="#000000" d="M 285.269531 19.199219 C 272.476562 19.214844 260.949219 19.835938 249.582031 22.222656 C 241.042969 24.007812 232.796875 26.585938 225.628906 31.792969 C 218.210938 37.175781 214.015625 44.394531 214.519531 53.65625 C 215.445312 70.675781 219.445312 86.917969 228.445312 101.589844 C 236.390625 114.539062 247.527344 123.738281 262.164062 128.203125 C 279.375 133.449219 296.84375 133.8125 314.289062 129.628906 C 329.144531 126.066406 338.886719 116.683594 343.691406 102.152344 C 346.003906 95.160156 347.28125 87.96875 347.855469 80.660156 C 348.675781 70.355469 349.457031 60.027344 348.070312 49.714844 C 346.6875 39.363281 341.695312 31.402344 332.195312 26.59375 C 328.109375 24.519531 323.769531 23.160156 319.300781 22.183594 C 307.683594 19.640625 295.875 19.328125 285.269531 19.199219 Z M 82.941406 132.308594 C 88.890625 132.257812 95.226562 131.921875 101.511719 130.847656 C 122.71875 127.226562 138.542969 115.789062 148.988281 97.210938 C 156.070312 84.617188 160.074219 70.910156 161.226562 56.414062 C 161.796875 49.25 160.046875 42.953125 155.160156 37.589844 C 152.492188 34.660156 149.402344 32.28125 145.96875 30.339844 C 133.46875 23.261719 119.738281 20.5625 105.667969 19.136719 C 96.707031 18.226562 87.71875 18.339844 78.722656 18.621094 C 70.246094 18.886719 61.808594 19.464844 53.515625 21.429688 C 39.523438 24.753906 30.875 33.347656 27.683594 47.40625 C 26.464844 52.75 25.894531 58.15625 25.640625 63.617188 C 25.132812 74.402344 25.851562 85.058594 28.917969 95.449219 C 33.035156 109.367188 40.8125 120.414062 54.234375 126.816406 C 63.179688 131.082031 72.730469 132.335938 82.941406 132.308594 Z M 90.738281 11.277344 C 108.617188 10.960938 126.550781 14.132812 144.390625 18.003906 C 154.738281 20.25 165.015625 22.769531 175.472656 24.476562 C 185.773438 26.15625 195.945312 25.394531 206.097656 23.457031 C 219.386719 20.917969 232.515625 17.558594 245.878906 15.359375 C 255.636719 13.753906 265.449219 12.6875 275.324219 12.019531 C 292.980469 10.832031 310.476562 12.492188 327.953125 14.691406 C 342.085938 16.46875 356.210938 18.304688 370.34375 20.136719 C 373.023438 20.488281 373.4375 21.0625 373.667969 23.664062 C 374.238281 30.082031 373.96875 36.507812 374.023438 42.929688 C 374.042969 45.300781 373.488281 45.945312 371.222656 46.203125 C 368.449219 46.515625 366.488281 48.019531 364.996094 50.261719 C 362.695312 53.734375 362 57.707031 361.265625 61.699219 C 358.75 75.386719 356.589844 89.171875 351.996094 102.367188 C 347.667969 114.789062 340.355469 124.90625 328.441406 131.195312 C 321.421875 134.898438 313.859375 136.882812 306.039062 137.785156 C 293.546875 139.234375 281.058594 139.097656 268.59375 137.207031 C 247.027344 133.941406 231.214844 122.5 220.398438 103.765625 C 213.367188 91.585938 208.234375 78.601562 203.851562 65.289062 C 203.089844 62.972656 202.109375 60.75 200.996094 58.566406 C 196.582031 49.890625 182.917969 48.628906 176.636719 56.148438 C 173.40625 60.007812 171.273438 64.441406 169.578125 69.097656 C 165.847656 79.359375 161.820312 89.492188 156.496094 99.050781 C 149.40625 111.769531 140.105469 122.328125 127.007812 129.175781 C 118.191406 133.789062 108.75 136.296875 98.929688 137.484375 C 90.933594 138.453125 82.902344 138.796875 74.898438 137.871094 C 59.304688 136.0625 44.976562 131.207031 33.515625 119.863281 C 27.847656 114.257812 24.347656 107.417969 22.238281 99.785156 C 18.304688 85.550781 15.199219 71.132812 12.914062 56.542969 C 12.035156 50.902344 9.132812 46.773438 3.484375 45 C 1.726562 44.453125 0.976562 43.269531 1 41.566406 C 1.070312 35.277344 0.683594 28.976562 1.359375 22.699219 C 1.722656 19.355469 2.875 18.101562 6.1875 17.851562 C 21.683594 16.707031 37.089844 14.640625 52.566406 13.339844 C 65.113281 12.289062 77.652344 11.1875 90.738281 11.277344 " fill-opacity="1" fill-rule="nonzero"/></g></svg>