<svg xmlns="http://www.w3.org/2000/svg" xmlns:xlink="http://www.w3.org/1999/xlink" width="80" zoomAndPan="magnify" viewBox="0 0 60 44.999999" height="60" preserveAspectRatio="xMidYMid meet" version="1.0"><defs><clipPath id="08edfa2fd3"><path d="M 0.394531 0 L 29 0 L 29 45 L 0.394531 45 Z M 0.394531 0 " clip-rule="nonzero"/></clipPath><clipPath id="a6069411d7"><path d="M 31 0 L 59.644531 0 L 59.644531 45 L 31 45 Z M 31 0 " clip-rule="nonzero"/></clipPath></defs><g clip-path="url(#08edfa2fd3)"><path fill="#000065" d="M 15.714844 19.261719 C 12.914062 19.261719 10.335938 20.195312 8.253906 21.746094 C 8.460938 15.261719 13.472656 8.769531 23.367188 2.28125 L 21.898438 0.00390625 C 7.5625 8.910156 0.394531 18.683594 0.394531 29.328125 C 0.394531 34.214844 1.722656 38.046875 4.386719 40.8125 C 7.046875 43.582031 10.414062 44.964844 14.488281 44.964844 C 18.5625 44.964844 21.84375 43.855469 24.34375 41.625 C 26.839844 39.402344 28.089844 36.710938 28.089844 33.5625 C 28.089844 33.527344 28.085938 33.503906 28.085938 33.464844 C 28.160156 32.90625 28.214844 32.34375 28.214844 31.757812 C 28.214844 24.859375 22.617188 19.261719 15.714844 19.261719 Z M 15.714844 19.261719 " fill-opacity="1" fill-rule="nonzero"/></g><g clip-path="url(#a6069411d7)"><path fill="#000065" d="M 56.132812 40.390625 C 56.292969 40.203125 56.488281 40.023438 56.636719 39.828125 C 58.480469 37.648438 59.597656 34.839844 59.597656 31.757812 C 59.597656 24.859375 54 19.257812 47.097656 19.257812 C 43.9375 19.257812 41.058594 20.441406 38.855469 22.378906 C 38.855469 22.300781 38.84375 22.238281 38.84375 22.15625 C 38.84375 15.535156 43.894531 8.90625 53.996094 2.28125 L 52.53125 0.00390625 C 38.191406 8.910156 31.023438 18.683594 31.023438 29.332031 C 31.023438 34.21875 32.351562 38.046875 35.015625 40.8125 C 37.675781 43.585938 41.042969 44.96875 45.113281 44.96875 C 49.1875 44.96875 52.476562 43.855469 54.972656 41.628906 C 55.324219 41.316406 55.601562 40.96875 55.902344 40.632812 C 55.980469 40.554688 56.054688 40.472656 56.132812 40.390625 Z M 56.132812 40.390625 " fill-opacity="1" fill-rule="nonzero"/></g></svg>