<svg xmlns="http://www.w3.org/2000/svg" xmlns:xlink="http://www.w3.org/1999/xlink" width="500" zoomAndPan="magnify" viewBox="0 0 375 56.249996" height="75" preserveAspectRatio="xMidYMid meet" version="1.0"><defs><g/></defs><path stroke-linecap="butt" transform="matrix(0.0251259, 0, 0, 0.0251259, 4.366971, 7.031247)" fill-opacity="1" fill="#000065" fill-rule="nonzero" stroke-linejoin="miter" d="M 2225.051329 839.832471 C 2225.051329 845.584747 2224.895862 851.337024 2224.429461 856.933833 C 2220.853722 833.76926 2218.366251 809.827353 2217.122515 785.729979 C 2216.967048 783.397975 2216.967048 781.065971 2216.811582 778.733967 C 2222.252924 798.167333 2225.206796 818.688968 2225.206796 839.832471 Z M 2225.051329 839.832471 " stroke="#000000" stroke-width="1" stroke-opacity="1" stroke-miterlimit="10"/><path stroke-linecap="butt" transform="matrix(0.0251259, 0, 0, 0.0251259, 4.366971, 7.031247)" fill="none" stroke-linejoin="miter" d="M 3081.829587 569.786411 L 3080.11945 569.786411 " stroke="#000000" stroke-width="1" stroke-opacity="1" stroke-miterlimit="10"/><path stroke-linecap="butt" transform="matrix(0.0251259, 0, 0, 0.0251259, 4.366971, 7.031247)" fill-opacity="1" fill="#000065" fill-rule="nonzero" stroke-linejoin="miter" d="M 920.061909 583.312034 C 920.061909 615.649156 891.922394 641.7676 857.097802 641.7676 L 128.113361 641.7676 L 128.113361 569.786411 L 918.351772 569.786411 C 919.440041 574.139485 920.061909 578.648026 920.061909 583.312034 Z M 920.061909 583.312034 " stroke="#000000" stroke-width="1" stroke-opacity="1" stroke-miterlimit="10"/><path stroke-linecap="butt" transform="matrix(0.0251259, 0, 0, 0.0251259, 4.366971, 7.031247)" fill="none" stroke-linejoin="miter" d="M 920.061909 569.786411 L 918.351772 569.786411 " stroke="#000000" stroke-width="1" stroke-opacity="1" stroke-miterlimit="10"/><path stroke-linecap="butt" transform="matrix(0.0251259, 0, 0, 0.0251259, 4.366971, 7.031247)" fill-opacity="1" fill="#000065" fill-rule="nonzero" stroke-linejoin="miter" d="M 3872.067998 569.786411 L 3872.067998 641.7676 L 3143.083557 641.7676 C 3108.258965 641.7676 3080.11945 615.649156 3080.11945 583.312034 C 3080.11945 550.974913 3080.741318 574.139485 3081.829587 569.786411 Z M 3872.067998 569.786411 " stroke="#000000" stroke-width="1" stroke-opacity="1" stroke-miterlimit="10"/><path stroke-linecap="butt" transform="matrix(0.0251259, 0, 0, 0.0251259, 4.366971, 7.031247)" fill-opacity="1" fill="#000065" fill-rule="nonzero" stroke-linejoin="miter" d="M 3872.067998 713.74879 L 3872.067998 785.729979 L 3583.21044 785.729979 C 3564.554408 1146.724193 3265.746966 1433.871615 2900.088744 1433.871615 C 2534.430522 1433.871615 2375.076917 1262.547057 2270.758607 1017.997574 C 2249.148703 967.470821 2233.446543 913.679263 2224.584928 857.866635 C 2224.584928 857.555701 2224.584928 857.244767 2224.429461 856.933833 C 2224.895862 851.337024 2225.051329 845.584747 2225.051329 839.832471 C 2225.051329 818.533501 2222.252924 798.167333 2216.656115 778.733967 C 2212.147574 762.87634 2205.928896 747.485114 2198.311017 733.182156 C 2160.377086 662.755636 2085.752959 614.871821 2000.090679 614.871821 C 1914.4284 614.871821 1839.95974 662.755636 1801.870342 733.182156 C 1794.252463 747.485114 1788.033785 762.720873 1783.525244 778.733967 C 1777.928435 798.167333 1775.13003 818.688968 1775.13003 839.832471 C 1775.13003 860.975973 1775.285497 851.337024 1775.751898 856.933833 C 1775.751898 857.244767 1775.751898 857.555701 1775.751898 857.866635 C 1766.734816 913.83473 1751.188123 967.470821 1729.578219 1017.997574 C 1625.259908 1262.39159 1382.731496 1433.871615 1100.248082 1433.871615 C 817.609201 1433.871615 435.937885 1146.724193 417.126386 785.729979 L 128.113361 785.729979 L 128.113361 713.74879 L 525.175904 713.74879 C 524.554036 725.719743 524.087635 737.690697 524.087635 749.817118 C 524.087635 761.943538 524.554036 773.914492 525.175904 785.729979 C 543.831935 1087.024891 794.133694 1325.822098 1100.092615 1325.822098 C 1406.051536 1325.822098 1615.465492 1124.336955 1665.992244 857.866635 C 1670.500785 834.235661 1673.454657 810.293754 1675.009326 785.729979 C 1675.631194 773.914492 1676.097595 761.943538 1676.097595 749.817118 C 1676.097595 557.038123 1581.418234 386.335433 1435.901186 281.861655 C 1341.377292 213.767139 1225.398962 173.812138 1100.092615 173.812138 C 974.786268 173.812138 858.807938 213.767139 764.284044 281.861655 L 601.3547 281.861655 C 726.039179 148.937429 903.426947 65.762621 1100.092615 65.762621 C 1296.758283 65.762621 1474.146051 148.937429 1598.83053 281.861655 C 1683.715475 372.187942 1744.192111 485.523335 1770.155088 611.607016 C 1774.974563 606.632074 1780.260439 601.812599 1785.390848 597.148591 C 1842.602678 546.466372 1917.693206 515.839386 2000.090679 515.839386 C 2082.488153 515.839386 2157.578681 546.466372 2214.790511 597.148591 C 2220.076387 601.812599 2225.206796 606.632074 2230.026271 611.607016 C 2255.989248 485.523335 2316.465884 372.187942 2401.350829 281.861655 C 2526.035308 148.937429 2703.423076 65.762621 2900.088744 65.762621 C 3096.754412 65.762621 3274.14218 148.937429 3398.826659 281.861655 L 3235.897315 281.861655 C 3141.373421 213.767139 3025.395091 173.812138 2900.088744 173.812138 C 2774.782397 173.812138 2658.804067 213.767139 2564.280173 281.861655 C 2418.918592 386.335433 2324.083764 557.038123 2324.083764 749.817118 C 2324.083764 942.596112 2324.550165 773.914492 2325.172033 785.729979 C 2326.726702 810.293754 2329.680574 834.235661 2334.189115 857.866635 C 2384.871334 1124.336955 2618.849066 1325.822098 2900.088744 1325.822098 C 3181.328422 1325.822098 3456.349424 1087.024891 3475.005455 785.729979 C 3475.627323 773.914492 3476.093724 761.943538 3476.093724 749.817118 C 3476.093724 737.690697 3475.627323 725.719743 3475.005455 713.74879 Z M 3872.067998 713.74879 " stroke="#000000" stroke-width="1" stroke-opacity="1" stroke-miterlimit="10"/><path stroke-linecap="butt" transform="matrix(0.0251259, 0, 0, 0.0251259, 4.366971, 7.031247)" fill-opacity="1" fill="#000065" fill-rule="nonzero" stroke-linejoin="miter" d="M 1783.525244 778.733967 C 1783.525244 781.065971 1783.369777 783.553442 1783.214311 785.729979 C 1781.970575 809.827353 1779.483104 833.613794 1775.751898 856.933833 C 1775.440964 851.337024 1775.13003 845.584747 1775.13003 839.832471 C 1775.13003 818.533501 1777.928435 798.167333 1783.525244 778.733967 Z M 1783.525244 778.733967 " stroke="#000000" stroke-width="1" stroke-opacity="1" stroke-miterlimit="10"/><path stroke-linecap="butt" transform="matrix(0.0251259, 0, 0, 0.0251259, 4.366971, 7.031247)" fill-opacity="1" fill="#000065" fill-rule="nonzero" stroke-linejoin="miter" d="M 3404.112535 749.817118 C 3404.112535 761.943538 3403.646134 773.914492 3402.868799 785.729979 C 3384.368235 1047.225357 3166.24813 1253.840908 2900.088744 1253.840908 C 2633.929358 1253.840908 2457.163457 1084.226487 2407.724973 857.866635 C 2402.594564 834.391128 2399.174292 810.293754 2397.464156 785.729979 C 2396.531354 773.914492 2396.064953 761.943538 2396.064953 749.817118 C 2396.064953 725.253343 2397.775089 701.311435 2401.195362 677.835928 C 2408.502308 626.998242 2423.271666 578.648026 2444.570636 533.87355 C 2498.828595 419.605356 2594.751691 329.123602 2712.751092 281.861655 C 2770.58479 258.541615 2833.859831 245.793327 2900.088744 245.793327 C 2966.317657 245.793327 3029.592698 258.541615 3087.426396 281.861655 C 3205.425797 329.123602 3301.348893 419.605356 3355.606852 533.87355 L 3335.551618 533.87355 C 3275.074982 411.987476 3164.848928 319.173718 3031.613768 281.861655 C 2989.793163 270.046168 2945.640555 263.827491 2900.088744 263.827491 C 2854.536933 263.827491 2810.539792 270.046168 2768.56372 281.861655 C 2635.32856 319.173718 2525.102506 411.987476 2464.62587 533.87355 C 2442.549566 578.337093 2426.847406 626.842775 2419.384993 677.835928 C 2415.96472 701.311435 2414.099117 725.253343 2414.099117 749.817118 C 2414.099117 774.225426 2414.565518 773.914492 2415.342853 785.729979 C 2417.208456 810.293754 2420.784195 834.391128 2426.070071 857.866635 C 2475.197621 1074.276603 2668.75395 1235.806744 2899.933277 1235.806744 C 3131.268071 1235.806744 3366.334071 1037.43094 3384.679168 785.729979 C 3385.61197 773.914492 3385.922904 761.943538 3385.922904 749.817118 C 3385.922904 737.690697 3385.61197 725.719743 3384.679168 713.74879 C 3383.746367 701.622369 3382.502631 689.651415 3380.637028 677.835928 L 3398.826659 677.835928 C 3400.536795 689.651415 3401.935998 701.622369 3402.713332 713.74879 C 3403.490667 725.719743 3403.957068 737.690697 3403.957068 749.817118 Z M 3404.112535 749.817118 " stroke="#000000" stroke-width="1" stroke-opacity="1" stroke-miterlimit="10"/><path stroke-linecap="butt" transform="matrix(0.0251259, 0, 0, 0.0251259, 4.366971, 7.031247)" fill-opacity="1" fill="#000065" fill-rule="nonzero" stroke-linejoin="miter" d="M 1604.116406 749.817118 C 1604.116406 761.943538 1603.650005 773.914492 1602.87267 785.729979 C 1601.162534 810.293754 1597.586795 834.391128 1592.456386 857.866635 C 1543.173369 1084.226487 1341.377292 1253.840908 1100.092615 1253.840908 C 858.807938 1253.840908 615.813124 1047.380824 597.468027 785.729979 C 596.535225 773.914492 596.068824 761.943538 596.068824 749.817118 C 596.068824 737.690697 596.535225 725.719743 597.468027 713.74879 C 598.245361 701.622369 599.489097 689.651415 601.199233 677.835928 L 619.388864 677.835928 C 617.523261 689.651415 616.279525 701.622369 615.346724 713.74879 C 614.569389 725.719743 614.102988 737.690697 614.102988 749.817118 C 614.102988 761.943538 614.569389 773.914492 615.346724 785.729979 C 633.847288 1037.43094 843.727645 1235.806744 1100.092615 1235.806744 C 1356.457584 1235.806744 1524.828271 1074.276603 1573.955821 857.866635 C 1579.241697 834.391128 1582.972903 810.293754 1584.683039 785.729979 C 1585.615841 773.914492 1585.926775 761.943538 1585.926775 749.817118 C 1585.926775 725.253343 1584.216639 701.311435 1580.640899 677.835928 C 1573.02302 626.842775 1557.631793 578.337093 1535.555489 533.87355 C 1474.923386 411.987476 1364.852799 319.173718 1231.462172 281.861655 C 1189.641567 270.046168 1145.644426 263.827491 1099.937148 263.827491 C 1054.385337 263.827491 1010.232729 270.046168 968.567591 281.861655 C 835.176964 319.173718 724.95091 411.987476 664.474274 533.87355 L 644.574507 533.87355 C 698.676999 419.605356 794.600095 329.123602 912.599496 281.861655 C 970.433194 258.541615 1033.863702 245.793327 1099.937148 245.793327 C 1166.166061 245.793327 1229.441102 258.541615 1287.430267 281.861655 C 1405.274201 329.123602 1501.197297 419.605356 1555.455256 533.87355 C 1576.754226 578.648026 1591.523584 626.998242 1598.83053 677.835928 C 1602.250803 701.311435 1603.960939 725.253343 1603.960939 749.817118 Z M 1604.116406 749.817118 " stroke="#000000" stroke-width="1" stroke-opacity="1" stroke-miterlimit="10"/><g fill="#000000" fill-opacity="1"><g transform="translate(113.538746, 40.932993)"><g><path d="M 0.234375 -26.15625 L 0.234375 -28.765625 L 16.28125 -28.765625 L 16.28125 -26.15625 L 9.71875 -26.15625 L 9.71875 0 L 6.84375 0 L 6.84375 -26.15625 Z M 0.234375 -26.15625 "/></g></g></g><g fill="#000000" fill-opacity="1"><g transform="translate(130.098045, 40.932993)"><g><path d="M 11.78125 -19.359375 C 9.757812 -19.359375 8.144531 -18.671875 6.9375 -17.296875 C 5.726562 -15.921875 5.125 -14.171875 5.125 -12.046875 L 5.125 0 L 2.40625 0 L 2.40625 -28.765625 L 5.125 -28.765625 L 5.125 -18.546875 L 5.203125 -18.546875 C 5.878906 -19.578125 6.796875 -20.378906 7.953125 -20.953125 C 9.109375 -21.523438 10.367188 -21.8125 11.734375 -21.8125 C 13.648438 -21.8125 15.316406 -21.394531 16.734375 -20.5625 C 18.148438 -19.738281 19.234375 -18.570312 19.984375 -17.0625 C 20.734375 -15.5625 21.109375 -13.828125 21.109375 -11.859375 L 21.109375 0 L 18.390625 0 L 18.390625 -11.859375 C 18.390625 -13.410156 18.101562 -14.75 17.53125 -15.875 C 16.957031 -17.007812 16.164062 -17.875 15.15625 -18.46875 C 14.144531 -19.0625 13.019531 -19.359375 11.78125 -19.359375 Z M 11.78125 -19.359375 "/></g></g></g><g fill="#000000" fill-opacity="1"><g transform="translate(153.809728, 40.932993)"><g><path d="M 12.515625 -1.9375 C 14.203125 -1.9375 15.75 -2.390625 17.15625 -3.296875 C 18.570312 -4.210938 19.566406 -5.429688 20.140625 -6.953125 L 23.015625 -6.953125 C 22.210938 -4.703125 20.84375 -2.894531 18.90625 -1.53125 C 16.976562 -0.175781 14.863281 0.5 12.5625 0.5 C 10.5625 0.5 8.710938 0.0078125 7.015625 -0.96875 C 5.316406 -1.957031 3.96875 -3.304688 2.96875 -5.015625 C 1.976562 -6.722656 1.484375 -8.585938 1.484375 -10.609375 C 1.484375 -12.628906 1.988281 -14.492188 3 -16.203125 C 4.007812 -17.921875 5.363281 -19.285156 7.0625 -20.296875 C 8.757812 -21.304688 10.578125 -21.8125 12.515625 -21.8125 C 14.585938 -21.8125 16.472656 -21.28125 18.171875 -20.21875 C 19.867188 -19.15625 21.207031 -17.75 22.1875 -16 C 23.175781 -14.25 23.671875 -12.398438 23.671875 -10.453125 L 23.640625 -9.640625 L 4.28125 -9.640625 C 4.351562 -8.265625 4.785156 -6.988281 5.578125 -5.8125 C 6.367188 -4.632812 7.382812 -3.691406 8.625 -2.984375 C 9.875 -2.285156 11.171875 -1.9375 12.515625 -1.9375 Z M 12.515625 -19.359375 C 11.191406 -19.359375 9.945312 -19.050781 8.78125 -18.4375 C 7.613281 -17.832031 6.628906 -16.976562 5.828125 -15.875 C 5.023438 -14.78125 4.507812 -13.519531 4.28125 -12.09375 L 20.875 -12.09375 C 20.488281 -14.238281 19.523438 -15.984375 17.984375 -17.328125 C 16.441406 -18.679688 14.617188 -19.359375 12.515625 -19.359375 Z M 12.515625 -19.359375 "/></g></g></g><g fill="#000000" fill-opacity="1"><g transform="translate(179.076266, 40.932993)"><g/></g></g><g fill="#000000" fill-opacity="1"><g transform="translate(189.843698, 40.932993)"><g><path d="M 16.875 0.5 C 14.257812 0.5 11.785156 -0.148438 9.453125 -1.453125 C 7.117188 -2.765625 5.238281 -4.546875 3.8125 -6.796875 C 2.382812 -9.054688 1.671875 -11.535156 1.671875 -14.234375 C 1.671875 -16.953125 2.347656 -19.460938 3.703125 -21.765625 C 5.066406 -24.078125 6.910156 -25.90625 9.234375 -27.25 C 11.554688 -28.59375 14.101562 -29.265625 16.875 -29.265625 C 19.625 -29.265625 22.160156 -28.597656 24.484375 -27.265625 C 26.816406 -25.929688 28.671875 -24.125 30.046875 -21.84375 C 31.421875 -19.5625 32.109375 -17.078125 32.109375 -14.390625 C 32.109375 -11.710938 31.421875 -9.234375 30.046875 -6.953125 C 28.671875 -4.671875 26.816406 -2.859375 24.484375 -1.515625 C 22.160156 -0.171875 19.625 0.5 16.875 0.5 Z M 16.828125 -26.671875 C 14.597656 -26.671875 12.546875 -26.097656 10.671875 -24.953125 C 8.796875 -23.816406 7.304688 -22.296875 6.203125 -20.390625 C 5.097656 -18.484375 4.546875 -16.429688 4.546875 -14.234375 C 4.546875 -12.109375 5.109375 -10.109375 6.234375 -8.234375 C 7.367188 -6.367188 8.878906 -4.878906 10.765625 -3.765625 C 12.660156 -2.648438 14.695312 -2.09375 16.875 -2.09375 C 19.125 -2.09375 21.195312 -2.648438 23.09375 -3.765625 C 24.988281 -4.878906 26.484375 -6.375 27.578125 -8.25 C 28.679688 -10.132812 29.234375 -12.164062 29.234375 -14.34375 C 29.234375 -16.519531 28.679688 -18.550781 27.578125 -20.4375 C 26.484375 -22.332031 24.984375 -23.84375 23.078125 -24.96875 C 21.171875 -26.101562 19.085938 -26.671875 16.828125 -26.671875 Z M 16.828125 -26.671875 "/></g></g></g><g fill="#000000" fill-opacity="1"><g transform="translate(223.623122, 40.932993)"><g><path d="M 5.203125 -21.265625 L 5.203125 -17.53125 L 5.28125 -17.53125 C 6.269531 -18.925781 7.46875 -19.988281 8.875 -20.71875 C 10.289062 -21.445312 11.851562 -21.8125 13.5625 -21.8125 C 15.6875 -21.8125 17.617188 -21.316406 19.359375 -20.328125 C 21.097656 -19.347656 22.472656 -18 23.484375 -16.28125 C 24.492188 -14.570312 25 -12.707031 25 -10.6875 C 25 -8.613281 24.5 -6.726562 23.5 -5.03125 C 22.5 -3.332031 21.128906 -1.984375 19.390625 -0.984375 C 17.660156 0.00390625 15.71875 0.5 13.5625 0.5 C 11.882812 0.5 10.316406 0.140625 8.859375 -0.578125 C 7.410156 -1.304688 6.21875 -2.359375 5.28125 -3.734375 L 5.203125 -3.734375 L 5.203125 7.46875 L 2.484375 7.46875 L 2.484375 -21.265625 Z M 13.53125 -19.359375 C 12.03125 -19.359375 10.625 -18.96875 9.3125 -18.1875 C 8 -17.414062 6.957031 -16.351562 6.1875 -15 C 5.425781 -13.65625 5.046875 -12.191406 5.046875 -10.609375 C 5.046875 -9.054688 5.421875 -7.613281 6.171875 -6.28125 C 6.929688 -4.945312 7.957031 -3.890625 9.25 -3.109375 C 10.550781 -2.328125 11.988281 -1.9375 13.5625 -1.9375 C 15.226562 -1.9375 16.71875 -2.316406 18.03125 -3.078125 C 19.351562 -3.847656 20.390625 -4.882812 21.140625 -6.1875 C 21.898438 -7.5 22.28125 -8.960938 22.28125 -10.578125 C 22.28125 -12.203125 21.910156 -13.679688 21.171875 -15.015625 C 20.429688 -16.359375 19.394531 -17.414062 18.0625 -18.1875 C 16.726562 -18.96875 15.21875 -19.359375 13.53125 -19.359375 Z M 13.53125 -19.359375 "/></g></g></g><g fill="#000000" fill-opacity="1"><g transform="translate(250.133552, 40.932993)"><g><path d="M 0.546875 -18.8125 L 0.546875 -21.265625 L 5.015625 -21.265625 L 5.015625 -28.765625 L 7.734375 -28.765625 L 7.734375 -21.265625 L 12.828125 -21.265625 L 12.828125 -18.8125 L 7.734375 -18.8125 L 7.734375 0 L 5.015625 0 L 5.015625 -18.8125 Z M 0.546875 -18.8125 "/></g></g></g><g fill="#000000" fill-opacity="1"><g transform="translate(263.311022, 40.932993)"><g><path d="M 5.25 -28.765625 L 5.25 -23.875 L 2.53125 -23.875 L 2.53125 -28.765625 Z M 5.25 -21.265625 L 5.25 0 L 2.53125 0 L 2.53125 -21.265625 Z M 5.25 -21.265625 "/></g></g><g transform="translate(271.08535, 40.932993)"><g><path d="M 13.015625 0.5 C 10.921875 0.5 9 0.015625 7.25 -0.953125 C 5.5 -1.921875 4.117188 -3.265625 3.109375 -4.984375 C 2.097656 -6.710938 1.59375 -8.664062 1.59375 -10.84375 C 1.59375 -12.757812 2.109375 -14.5625 3.140625 -16.25 C 4.179688 -17.9375 5.578125 -19.285156 7.328125 -20.296875 C 9.078125 -21.304688 10.972656 -21.8125 13.015625 -21.8125 C 15.378906 -21.8125 17.519531 -21.1875 19.4375 -19.9375 C 21.351562 -18.695312 22.738281 -17 23.59375 -14.84375 L 20.609375 -14.84375 C 19.828125 -16.300781 18.769531 -17.414062 17.4375 -18.1875 C 16.101562 -18.96875 14.65625 -19.359375 13.09375 -19.359375 C 11.488281 -19.359375 10.007812 -18.96875 8.65625 -18.1875 C 7.3125 -17.414062 6.25 -16.367188 5.46875 -15.046875 C 4.695312 -13.722656 4.3125 -12.269531 4.3125 -10.6875 C 4.3125 -9.082031 4.695312 -7.613281 5.46875 -6.28125 C 6.25 -4.945312 7.304688 -3.890625 8.640625 -3.109375 C 9.984375 -2.328125 11.46875 -1.9375 13.09375 -1.9375 C 14.726562 -1.9375 16.195312 -2.304688 17.5 -3.046875 C 18.8125 -3.785156 19.847656 -4.859375 20.609375 -6.265625 L 23.59375 -6.265625 C 21.3125 -1.753906 17.785156 0.5 13.015625 0.5 Z M 13.015625 0.5 "/></g></g></g><g fill="#000000" fill-opacity="1"><g transform="translate(296.235279, 40.932993)"><g><path d="M 5.25 -28.765625 L 5.25 -23.875 L 2.53125 -23.875 L 2.53125 -28.765625 Z M 5.25 -21.265625 L 5.25 0 L 2.53125 0 L 2.53125 -21.265625 Z M 5.25 -21.265625 "/></g></g><g transform="translate(304.009608, 40.932993)"><g><path d="M 21.34375 -3.734375 C 20.457031 -2.410156 19.289062 -1.375 17.84375 -0.625 C 16.394531 0.125 14.800781 0.5 13.0625 0.5 C 10.957031 0.5 9.03125 0.0078125 7.28125 -0.96875 C 5.539062 -1.957031 4.160156 -3.300781 3.140625 -5 C 2.128906 -6.695312 1.625 -8.59375 1.625 -10.6875 C 1.625 -12.757812 2.144531 -14.644531 3.1875 -16.34375 C 4.226562 -18.039062 5.617188 -19.375 7.359375 -20.34375 C 9.109375 -21.320312 11.007812 -21.8125 13.0625 -21.8125 C 14.820312 -21.8125 16.425781 -21.429688 17.875 -20.671875 C 19.332031 -19.921875 20.488281 -18.875 21.34375 -17.53125 L 21.421875 -17.53125 L 21.421875 -21.265625 L 24.140625 -21.265625 L 24.140625 0 L 21.421875 0 L 21.421875 -3.734375 Z M 21.578125 -10.609375 C 21.578125 -12.171875 21.203125 -13.625 20.453125 -14.96875 C 19.703125 -16.3125 18.671875 -17.378906 17.359375 -18.171875 C 16.046875 -18.960938 14.597656 -19.359375 13.015625 -19.359375 C 11.410156 -19.359375 9.945312 -18.972656 8.625 -18.203125 C 7.300781 -17.441406 6.257812 -16.394531 5.5 -15.0625 C 4.738281 -13.726562 4.359375 -12.234375 4.359375 -10.578125 C 4.359375 -8.960938 4.734375 -7.492188 5.484375 -6.171875 C 6.234375 -4.859375 7.273438 -3.820312 8.609375 -3.0625 C 9.941406 -2.3125 11.425781 -1.9375 13.0625 -1.9375 C 14.613281 -1.9375 16.035156 -2.328125 17.328125 -3.109375 C 18.628906 -3.890625 19.660156 -4.9375 20.421875 -6.25 C 21.191406 -7.570312 21.578125 -9.023438 21.578125 -10.609375 Z M 21.578125 -10.609375 "/></g></g></g><g fill="#000000" fill-opacity="1"><g transform="translate(330.558918, 40.932993)"><g><path d="M 11.890625 -19.359375 C 9.867188 -19.359375 8.253906 -18.671875 7.046875 -17.296875 C 5.847656 -15.921875 5.25 -14.171875 5.25 -12.046875 L 5.25 0 L 2.53125 0 L 2.53125 -21.265625 L 5.25 -21.265625 L 5.25 -18.546875 L 5.328125 -18.546875 C 6.003906 -19.578125 6.914062 -20.378906 8.0625 -20.953125 C 9.21875 -21.523438 10.484375 -21.8125 11.859375 -21.8125 C 13.773438 -21.8125 15.4375 -21.394531 16.84375 -20.5625 C 18.257812 -19.738281 19.34375 -18.570312 20.09375 -17.0625 C 20.84375 -15.5625 21.21875 -13.828125 21.21875 -11.859375 L 21.21875 0 L 18.5 0 L 18.5 -11.859375 C 18.5 -13.410156 18.210938 -14.75 17.640625 -15.875 C 17.078125 -17.007812 16.289062 -17.875 15.28125 -18.46875 C 14.269531 -19.0625 13.140625 -19.359375 11.890625 -19.359375 Z M 11.890625 -19.359375 "/></g></g></g><g fill="#000000" fill-opacity="1"><g transform="translate(354.2706, 40.932993)"><g><path d="M 7.5 -19.359375 C 6.59375 -19.359375 5.828125 -19.050781 5.203125 -18.4375 C 4.585938 -17.832031 4.28125 -17.078125 4.28125 -16.171875 C 4.28125 -15.390625 4.570312 -14.710938 5.15625 -14.140625 C 5.738281 -13.578125 6.675781 -13.085938 7.96875 -12.671875 C 9.65625 -12.128906 10.941406 -11.523438 11.828125 -10.859375 C 12.722656 -10.203125 13.332031 -9.476562 13.65625 -8.6875 C 13.988281 -7.894531 14.15625 -6.957031 14.15625 -5.875 C 14.15625 -3.925781 13.550781 -2.375 12.34375 -1.21875 C 11.132812 -0.0703125 9.507812 0.5 7.46875 0.5 C 6.25 0.5 5.140625 0.226562 4.140625 -0.3125 C 3.140625 -0.851562 2.351562 -1.628906 1.78125 -2.640625 C 1.21875 -3.648438 0.9375 -4.816406 0.9375 -6.140625 L 0.9375 -6.296875 L 3.65625 -6.296875 C 3.675781 -4.898438 4.023438 -3.820312 4.703125 -3.0625 C 5.378906 -2.3125 6.300781 -1.9375 7.46875 -1.9375 C 8.707031 -1.9375 9.675781 -2.265625 10.375 -2.921875 C 11.070312 -3.585938 11.421875 -4.53125 11.421875 -5.75 C 11.421875 -6.738281 11.109375 -7.550781 10.484375 -8.1875 C 9.867188 -8.820312 8.925781 -9.367188 7.65625 -9.828125 C 6.175781 -10.378906 5.03125 -10.875 4.21875 -11.3125 C 3.40625 -11.75 2.757812 -12.332031 2.28125 -13.0625 C 1.800781 -13.789062 1.5625 -14.738281 1.5625 -15.90625 C 1.5625 -17.613281 2.128906 -19.023438 3.265625 -20.140625 C 4.398438 -21.253906 5.851562 -21.8125 7.625 -21.8125 C 8.6875 -21.8125 9.65625 -21.5625 10.53125 -21.0625 C 11.414062 -20.570312 12.113281 -19.882812 12.625 -19 C 13.144531 -18.125 13.40625 -17.128906 13.40625 -16.015625 L 10.6875 -16.015625 C 10.613281 -17.023438 10.285156 -17.832031 9.703125 -18.4375 C 9.117188 -19.050781 8.382812 -19.359375 7.5 -19.359375 Z M 7.5 -19.359375 "/></g></g></g></svg>