<svg xmlns="http://www.w3.org/2000/svg" xmlns:xlink="http://www.w3.org/1999/xlink" width="500" zoomAndPan="magnify" viewBox="0 0 375 112.499997" height="150" preserveAspectRatio="xMidYMid meet" version="1.0"><defs><clipPath id="f4d9f5b0fe"><path d="M 0.828125 0 L 374.167969 0 L 374.167969 112.003906 L 0.828125 112.003906 Z M 0.828125 0 " clip-rule="nonzero"/></clipPath></defs><g clip-path="url(#f4d9f5b0fe)"><path fill="#ffffff" d="M 0.828125 -130.667969 L 374.171875 -130.667969 L 374.171875 242.671875 L 0.828125 242.671875 Z M 0.828125 -130.667969 " fill-opacity="1" fill-rule="evenodd"/></g><path fill="#000000" d="M 35.492188 80.144531 C 22.808594 80.144531 11.980469 68.640625 11.980469 56.09375 C 11.980469 43.589844 22.582031 31.855469 35.402344 31.855469 C 43.828125 31.855469 49.898438 35.933594 54.835938 42.320312 L 61.042969 42.320312 C 59.183594 38.96875 57.191406 35.890625 54.15625 33.488281 C 48.945312 29.273438 42.195312 26.785156 35.492188 26.785156 C 19.410156 26.785156 6.320312 40.058594 6.320312 56.046875 C 6.320312 72.082031 19.59375 85.21875 35.585938 85.21875 C 42.109375 85.21875 48.496094 82.820312 53.613281 78.789062 C 56.832031 76.207031 59.097656 72.855469 61.269531 69.410156 L 55.066406 69.410156 C 50.171875 75.796875 43.921875 80.144531 35.492188 80.144531 Z M 99.820312 49.570312 C 95.925781 44.539062 90.625 41.371094 84.054688 41.371094 C 72.277344 41.371094 62.585938 50.929688 62.585938 62.707031 C 62.585938 74.484375 72.324219 84.132812 84.054688 84.132812 C 90.898438 84.132812 95.652344 81.277344 99.820312 76.023438 L 99.820312 83.179688 L 104.941406 83.179688 L 104.941406 42.367188 L 99.820312 42.367188 Z M 83.785156 79.421875 C 74.769531 79.421875 67.65625 71.585938 67.65625 62.753906 C 67.65625 53.964844 74.722656 46.082031 83.785156 46.082031 C 92.800781 46.082031 99.820312 53.964844 99.820312 62.753906 C 99.820312 71.585938 92.753906 79.421875 83.785156 79.421875 Z M 111.144531 83.179688 L 116.628906 83.179688 L 116.628906 27.960938 L 111.144531 27.960938 Z M 137.328125 76.703125 L 123.46875 42.367188 L 118.03125 42.367188 L 134.65625 83.179688 L 140.183594 83.179688 L 156.765625 42.367188 L 151.417969 42.367188 Z M 159.027344 83.179688 L 164.507812 83.179688 L 164.507812 42.367188 L 159.027344 42.367188 Z M 159.027344 37.109375 L 164.507812 37.109375 L 164.507812 27.960938 L 159.027344 27.960938 Z M 188.113281 41.367188 C 182.945312 41.367188 179.277344 44.085938 175.878906 47.710938 L 175.878906 42.367188 L 170.804688 42.367188 L 170.804688 83.179688 L 176.195312 83.179688 L 176.195312 58.308594 C 176.152344 51.742188 181.585938 46.082031 188.199219 46.082031 C 196.488281 46.082031 200.65625 53.285156 200.65625 60.714844 L 200.65625 83.183594 L 205.730469 83.183594 L 205.730469 60.714844 C 205.730469 50.113281 199.527344 41.367188 188.113281 41.367188 Z M 256.605469 27.960938 L 231.6875 59.625 L 231.6875 27.960938 L 226.300781 27.960938 L 226.300781 83.179688 L 231.6875 83.179688 L 231.6875 68.003906 L 238.757812 59.21875 L 256.742188 83.179688 L 263.582031 83.179688 L 242.199219 54.867188 L 263.582031 27.960938 Z M 265.574219 83.179688 L 270.921875 83.179688 L 270.921875 27.960938 L 265.574219 27.960938 Z M 315.179688 52.648438 C 311.464844 45.714844 304.035156 41.367188 296.195312 41.367188 C 284.511719 41.367188 274.632812 51.109375 274.632812 62.796875 C 274.632812 74.570312 284.601562 84.132812 296.292969 84.132812 C 301.859375 84.132812 307.34375 81.914062 311.375 78.0625 C 313.820312 75.75 315.269531 72.851562 316.582031 69.816406 L 310.832031 69.816406 C 307.929688 75.480469 302.8125 79.417969 296.195312 79.417969 C 292.164062 79.417969 288.222656 77.789062 285.234375 75.023438 C 282.152344 72.21875 280.792969 68.773438 280.203125 64.699219 L 317.851562 64.699219 C 317.855469 60.441406 317.261719 56.363281 315.179688 52.648438 Z M 280.386719 59.988281 C 282.023438 52.332031 288.042969 46.082031 296.292969 46.082031 C 303.222656 46.082031 310.652344 50.339844 312.28125 59.988281 Z M 321.839844 83.179688 L 327.230469 83.179688 L 327.230469 42.367188 L 321.839844 42.367188 Z M 321.839844 37.292969 L 327.230469 37.292969 L 327.230469 27.960938 L 321.839844 27.960938 Z M 350.925781 41.367188 C 345.664062 41.367188 341.996094 44.085938 338.554688 47.710938 L 338.554688 42.367188 L 333.390625 42.367188 L 333.390625 83.179688 L 338.828125 83.179688 L 338.828125 58.308594 C 338.78125 51.699219 344.355469 46.082031 351.011719 46.082031 C 359.257812 46.082031 363.609375 53.285156 363.609375 60.714844 L 363.609375 83.183594 L 368.679688 83.183594 L 368.679688 60.714844 C 368.679688 50.113281 362.382812 41.367188 350.925781 41.367188 Z M 350.925781 41.367188 " fill-opacity="1" fill-rule="evenodd"/></svg>