<svg xmlns="http://www.w3.org/2000/svg" xmlns:xlink="http://www.w3.org/1999/xlink" width="500" zoomAndPan="magnify" viewBox="0 0 375 112.499997" height="150" preserveAspectRatio="xMidYMid meet" version="1.0"><defs><clipPath id="e186932197"><path d="M 12.03125 32.695312 L 362.96875 32.695312 L 362.96875 78.992188 L 12.03125 78.992188 Z M 12.03125 32.695312 " clip-rule="nonzero"/></clipPath></defs><g clip-path="url(#e186932197)"><path fill="#d63d3d" d="M 50.503906 33.039062 C 35.773438 33.273438 34.363281 33.429688 29.542969 35.140625 C 20.296875 38.449219 14.695312 45.023438 12.65625 54.988281 C 12.03125 58.023438 12.03125 65.027344 12.617188 67.167969 C 13.597656 70.632812 15.792969 73.316406 19.160156 75.222656 C 25.078125 78.53125 28.171875 78.921875 49.40625 78.921875 L 66.6875 78.921875 L 68.921875 76.003906 C 70.132812 74.40625 71.425781 72.925781 71.859375 72.695312 C 72.289062 72.460938 76.519531 72.304688 82.359375 72.304688 C 93.605469 72.304688 92.820312 72.03125 94.230469 76.273438 L 95.09375 78.921875 L 117.269531 78.921875 L 118.011719 76.859375 C 118.445312 75.769531 119.464844 73.082031 120.246094 70.941406 C 121.070312 68.800781 122.050781 66.3125 122.441406 65.417969 C 122.871094 64.523438 123.183594 63.625 123.183594 63.394531 C 123.183594 63.160156 123.421875 62.421875 123.734375 61.71875 C 124.046875 61.019531 124.554688 59.8125 124.910156 58.996094 C 125.261719 58.21875 125.535156 57.398438 125.535156 57.167969 C 125.535156 56.933594 125.730469 56.425781 125.929688 56.039062 C 126.164062 55.6875 127.023438 53.546875 127.847656 51.289062 C 130.472656 44.324219 130.433594 44.363281 132.039062 44.050781 C 132.824219 43.894531 135.683594 43.859375 138.425781 43.972656 C 143.949219 44.167969 145.28125 44.636719 145.714844 46.621094 C 145.988281 47.945312 144.851562 50.667969 143.480469 51.953125 C 142.070312 53.273438 140.660156 53.625 136.742188 53.625 L 133.058594 53.625 L 132.433594 55.609375 C 130.785156 60.589844 130.941406 67.089844 132.824219 70.671875 C 134.898438 74.640625 138.113281 76.9375 143.558594 78.179688 C 146.027344 78.804688 148.378906 78.882812 158.761719 78.921875 L 170.984375 78.921875 L 171.847656 77.050781 C 173.101562 74.289062 173.21875 73.976562 174.941406 69.386719 C 175.804688 67.011719 176.941406 64.054688 177.449219 62.769531 C 177.921875 61.488281 178.820312 59.113281 179.410156 57.515625 C 179.996094 55.921875 180.703125 54.054688 180.976562 53.429688 C 181.25 52.769531 182.152344 50.550781 182.976562 48.410156 C 184.148438 45.414062 184.699219 44.519531 185.480469 44.207031 C 186.03125 44.011719 188.929688 43.894531 191.945312 43.972656 C 198.6875 44.128906 199.585938 44.558594 199.585938 47.242188 C 199.585938 49.035156 199.15625 50.046875 197.824219 51.640625 C 196.609375 53.042969 195.433594 53.390625 191.046875 53.625 L 186.972656 53.820312 L 186.460938 55.335938 C 184.894531 59.851562 184.933594 66.738281 186.539062 70.28125 C 187.871094 73.121094 190.96875 75.964844 194.023438 77.167969 C 198.449219 78.882812 198.6875 78.921875 235.945312 78.921875 L 271.328125 78.921875 L 271.914062 77.441406 C 272.226562 76.664062 272.660156 75.652344 272.855469 75.222656 C 273.089844 74.796875 274.382812 71.371094 275.792969 67.636719 C 277.203125 63.898438 278.535156 60.472656 278.730469 60.046875 C 278.929688 59.617188 279.476562 58.140625 279.945312 56.777344 C 280.417969 55.414062 281.042969 53.859375 281.316406 53.273438 C 281.632812 52.730469 281.867188 52.03125 281.867188 51.757812 C 281.867188 51.484375 282.023438 50.980469 282.21875 50.589844 C 282.414062 50.238281 283.003906 48.878906 283.472656 47.59375 C 284.921875 43.820312 284.960938 43.78125 291.9375 43.972656 C 297.617188 44.128906 297.96875 44.167969 298.949219 45.0625 C 299.851562 45.921875 299.929688 46.269531 299.773438 47.867188 C 299.574219 49.96875 298.085938 52.222656 296.441406 52.964844 C 295.855469 53.199219 293.542969 53.507812 291.308594 53.625 L 287.195312 53.820312 L 286.449219 56.15625 C 285.394531 59.617188 285.15625 64.988281 285.941406 67.867188 C 287.15625 72.070312 290.289062 75.613281 294.246094 77.128906 C 298.085938 78.648438 300.632812 78.921875 311.09375 78.921875 L 321.28125 78.921875 L 323.554688 75.847656 C 324.808594 74.132812 326.21875 72.65625 326.6875 72.539062 C 328.136719 72.148438 346.121094 72.265625 346.90625 72.695312 C 347.613281 73.082031 348.277344 74.445312 349.023438 77.167969 L 349.453125 78.726562 L 356.230469 78.84375 L 362.96875 78.921875 L 362.96875 78.066406 C 362.96875 77.246094 362.148438 74.132812 360.382812 68.21875 C 360.03125 67.128906 359.5625 65.378906 359.246094 64.328125 C 358.621094 61.992188 358.464844 61.410156 357.210938 57.128906 C 356.660156 55.296875 355.996094 52.925781 355.722656 51.875 C 353.410156 43.3125 350.550781 33.351562 350.316406 33.15625 C 350.117188 32.960938 348.707031 32.921875 343.378906 32.960938 L 337.699219 33.039062 L 336.523438 34.789062 C 335.894531 35.761719 335.074219 37.007812 334.761719 37.476562 C 334.445312 37.980469 332.058594 41.484375 329.472656 45.257812 C 326.886719 48.996094 324.496094 52.496094 324.179688 53.042969 C 323.867188 53.546875 322.457031 55.609375 321.046875 57.59375 C 319.675781 59.578125 317.558594 62.652344 316.382812 64.40625 L 314.269531 67.636719 L 307.960938 67.636719 C 302.515625 67.636719 301.496094 67.519531 300.554688 66.933594 C 298.949219 65.84375 298.363281 64.871094 298.320312 63.277344 C 298.320312 61.914062 298.402344 61.835938 299.8125 61.601562 C 307.253906 60.359375 313.054688 54.949219 314.972656 47.359375 C 315.5625 44.984375 315.5625 44.636719 314.972656 42.378906 C 313.996094 38.605469 312.308594 36.464844 309.097656 34.90625 C 305.804688 33.3125 302.867188 33.039062 288.644531 33 C 281.199219 32.960938 274.96875 33.078125 274.8125 33.273438 C 274.460938 33.621094 270.113281 44.519531 268.308594 49.539062 C 267.957031 50.589844 267.527344 51.640625 267.371094 51.875 C 267.210938 52.070312 266.546875 53.820312 265.800781 55.765625 C 265.097656 57.671875 264.195312 60.007812 263.804688 60.902344 C 263.375 61.796875 263.058594 62.691406 263.058594 62.886719 C 263.058594 63.082031 262.628906 64.25 262.082031 65.457031 L 261.101562 67.636719 L 246.132812 67.558594 L 231.128906 67.441406 L 231.246094 66.390625 C 231.285156 65.804688 231.597656 64.871094 231.910156 64.25 C 232.222656 63.664062 232.5 62.847656 232.5 62.5 C 232.5 62.148438 232.890625 61.5625 233.359375 61.253906 C 234.105469 60.746094 235.671875 60.628906 242.566406 60.628906 C 250.796875 60.628906 250.875 60.628906 251.382812 59.773438 C 251.816406 58.996094 253.695312 54.015625 254.324219 51.953125 C 254.519531 51.328125 253.96875 51.289062 246.484375 51.289062 C 242.058594 51.289062 238.179688 51.171875 237.828125 51.058594 C 237.476562 50.941406 237.199219 50.550781 237.199219 50.199219 C 237.199219 49.265625 238.414062 46.191406 239.238281 44.945312 L 239.980469 43.894531 L 260.628906 43.894531 L 261.296875 42.417969 C 261.648438 41.640625 262.082031 40.628906 262.277344 40.199219 C 263.097656 38.449219 264.980469 33.234375 264.863281 33.117188 C 264.824219 33.039062 256.828125 32.960938 247.152344 32.960938 L 229.558594 32.921875 L 228.894531 34.246094 C 227.953125 35.996094 226.972656 38.371094 225.445312 42.535156 C 224.742188 44.441406 223.996094 46.191406 223.800781 46.386719 C 223.644531 46.621094 223.488281 47.007812 223.488281 47.320312 C 223.488281 47.59375 223.175781 48.566406 222.742188 49.460938 C 222.351562 50.355469 221.527344 52.417969 220.941406 54.015625 C 220.351562 55.609375 219.53125 57.671875 219.136719 58.566406 C 218.707031 59.460938 218.394531 60.4375 218.394531 60.746094 C 218.394531 61.019531 218.277344 61.410156 218.121094 61.5625 C 217.921875 61.71875 217.335938 63.121094 216.789062 64.636719 L 215.769531 67.441406 L 208.953125 67.558594 C 201.351562 67.675781 199.902344 67.363281 198.6875 65.300781 C 197.394531 63.199219 198.136719 61.410156 200.253906 61.410156 C 200.644531 61.410156 202.171875 60.941406 203.660156 60.398438 C 210.246094 57.867188 214.945312 51.367188 214.90625 44.714844 C 214.90625 38.835938 211.539062 35.140625 204.796875 33.582031 C 202.917969 33.15625 199.117188 33 188.617188 33 C 181.054688 32.960938 174.746094 33.078125 174.550781 33.195312 C 174.355469 33.3125 174.082031 33.933594 173.925781 34.558594 C 173.765625 35.179688 173.492188 35.800781 173.296875 35.917969 C 173.101562 36.074219 172.945312 36.425781 172.945312 36.734375 C 172.945312 37.046875 172.632812 38.058594 172.199219 38.953125 C 171.808594 39.847656 170.984375 41.910156 170.398438 43.507812 C 169.808594 45.101562 168.988281 47.164062 168.59375 48.058594 C 168.164062 48.957031 167.851562 49.8125 167.851562 49.929688 C 167.851562 50.238281 164.519531 58.761719 163.699219 60.511719 C 163.382812 61.175781 163.148438 61.914062 163.148438 62.148438 C 163.148438 62.382812 162.992188 62.886719 162.757812 63.277344 C 162.5625 63.625 162.050781 64.753906 161.621094 65.765625 L 160.835938 67.636719 L 154.175781 67.636719 C 148.144531 67.636719 147.398438 67.558594 146.144531 66.816406 C 145.164062 66.234375 144.617188 65.574219 144.304688 64.523438 C 143.714844 62.652344 144.027344 61.875 145.402344 61.601562 C 151.945312 60.28125 156.371094 57.089844 159.152344 51.640625 C 160.835938 48.371094 161.308594 45.609375 160.757812 42.613281 C 159.898438 37.785156 156.722656 34.945312 150.769531 33.582031 C 148.535156 33.078125 145.597656 33 134.195312 33.078125 L 120.363281 33.195312 L 119.699219 34.945312 C 119.304688 35.917969 118.640625 37.515625 118.171875 38.527344 C 117.699219 39.539062 117.308594 40.550781 117.308594 40.785156 C 117.308594 40.976562 117.152344 41.484375 116.917969 41.871094 C 116.40625 42.808594 115.664062 44.558594 113.390625 50.316406 C 112.253906 53.082031 111.195312 55.726562 111.039062 56.15625 C 110.84375 56.582031 110.332031 57.75 109.902344 58.761719 C 109.433594 59.773438 109.082031 60.667969 109.082031 60.785156 C 109.082031 61.371094 106.257812 66.855469 105.984375 66.855469 C 105.4375 66.855469 105.242188 66.429688 104.378906 63.277344 C 102.96875 57.945312 101.28125 51.875 99.480469 45.453125 C 98.460938 41.910156 97.40625 37.941406 97.050781 36.621094 C 96.152344 32.765625 96.230469 32.804688 88.902344 32.921875 L 82.59375 33.039062 L 78.128906 39.734375 C 75.660156 43.429688 73.503906 46.582031 73.308594 46.816406 C 73.152344 47.007812 70.214844 51.40625 66.804688 56.542969 C 63.355469 61.679688 60.183594 66.3125 59.671875 66.777344 L 58.851562 67.714844 L 47.410156 67.519531 C 34.636719 67.324219 32.050781 66.972656 29.660156 65.066406 C 27.507812 63.316406 26.957031 61.292969 27.507812 57.285156 C 28.40625 50.550781 31.933594 46.464844 38.359375 44.714844 C 39.300781 44.441406 44 44.285156 50.308594 44.285156 C 56.03125 44.285156 60.886719 44.128906 61.164062 43.972656 C 61.398438 43.820312 61.984375 42.574219 62.496094 41.171875 C 62.964844 39.769531 63.472656 38.449219 63.628906 38.253906 C 64.257812 37.398438 65.316406 33.351562 64.960938 33.078125 C 64.765625 32.921875 58.261719 32.921875 50.503906 33.039062 Z M 87.804688 49.035156 C 88.039062 49.304688 88.3125 49.96875 88.433594 50.511719 C 88.550781 51.058594 89.214844 53.585938 89.882812 56.15625 C 90.585938 58.722656 91.253906 61.488281 91.332031 62.265625 C 91.527344 63.625 91.449219 63.703125 90.195312 63.9375 C 89.488281 64.054688 86.433594 64.132812 83.457031 64.054688 C 79.066406 63.976562 77.929688 63.820312 77.617188 63.355469 C 77.34375 62.886719 77.8125 61.875 79.421875 59.269531 C 80.636719 57.324219 82.515625 54.285156 83.652344 52.457031 C 86.121094 48.449219 86.863281 47.867188 87.804688 49.035156 Z M 342.480469 49.035156 C 342.636719 49.304688 342.988281 50.394531 343.261719 51.484375 C 343.496094 52.535156 343.96875 54.402344 344.320312 55.570312 C 345.613281 60.320312 346.082031 62.574219 345.886719 63.160156 C 345.535156 64.054688 344.515625 64.171875 338.324219 64.054688 C 331.117188 63.898438 331.117188 63.9375 334.015625 59.269531 C 335.191406 57.398438 336.40625 55.375 336.71875 54.832031 C 340.207031 48.996094 341.539062 47.632812 342.480469 49.035156 Z M 342.480469 49.035156 " fill-opacity="1" fill-rule="nonzero"/></g></svg>