<svg xmlns="http://www.w3.org/2000/svg" xmlns:xlink="http://www.w3.org/1999/xlink" width="500" zoomAndPan="magnify" viewBox="0 0 375 112.499997" height="150" preserveAspectRatio="xMidYMid meet" version="1.0"><defs><clipPath id="bd8526c7aa"><path d="M 19.671875 0 L 355.679688 0 L 355.679688 112.003906 L 19.671875 112.003906 Z M 19.671875 0 " clip-rule="nonzero"/></clipPath></defs><g clip-path="url(#bd8526c7aa)"><path fill="#ffffff" d="M 19.671875 -111.707031 L 355.679688 -111.707031 L 355.679688 224.300781 L 19.671875 224.300781 Z M 19.671875 -111.707031 " fill-opacity="1" fill-rule="evenodd"/></g><path fill="#c23c40" d="M 33.078125 8.648438 L 134.71875 8.285156 C 138.386719 8.273438 141.398438 11.207031 141.414062 14.804688 L 141.628906 75.0625 C 141.640625 78.660156 138.648438 81.617188 134.980469 81.632812 L 33.339844 81.996094 C 29.671875 82.007812 26.660156 79.074219 26.644531 75.476562 L 26.429688 15.214844 C 26.417969 11.617188 29.40625 8.664062 33.078125 8.648438 Z M 33.078125 8.648438 " fill-opacity="1" fill-rule="evenodd"/><path fill="#ffffff" d="M 66.6875 54.460938 L 66.148438 38.285156 C 57.65625 38.105469 49.492188 38.238281 41.023438 39.011719 C 39.671875 38.957031 38.417969 38.582031 37.242188 37.25 C 32.191406 31.972656 31.210938 31.027344 39.894531 30.761719 C 60.328125 30.132812 119.683594 28.492188 130.277344 30.726562 C 139.261719 33.46875 129.230469 42.511719 127.964844 44.527344 L 114.5625 59.375 C 111.976562 61.476562 109.066406 62.019531 105.257812 62.386719 L 60.863281 62.339844 C 57.570312 62.226562 57.261719 61.707031 55.792969 60.296875 L 53.207031 57.117188 C 53.421875 55.703125 52.570312 54.953125 54.878906 54.769531 Z M 84.996094 37.96875 C 92.417969 37.628906 98.855469 37.949219 105.179688 38.453125 C 109.476562 39.195312 109.542969 39.160156 107.152344 43.34375 L 102.59375 51.867188 C 101.511719 53.832031 100.679688 54.28125 98.878906 54.417969 L 85.78125 54.367188 Z M 84.996094 37.96875 " fill-opacity="1" fill-rule="evenodd"/><path fill="#000000" d="M 151.753906 82.003906 L 170.464844 82.003906 C 176.578125 82.003906 186.84375 72.847656 186.84375 62.160156 L 186.84375 29.996094 C 185.53125 28.097656 188.054688 12.164062 168.367188 10.242188 C 167.699219 10.179688 167.023438 10.332031 166.34375 10.332031 L 151.753906 10.332031 Z M 164.925781 67.96875 L 164.925781 22.683594 C 166.847656 22.363281 172.488281 21.808594 172.488281 30.59375 L 172.488281 60.421875 C 172.488281 66.304688 169.5625 67.96875 164.925781 67.96875 Z M 192.578125 81.042969 L 207.328125 81.042969 L 207.328125 8.941406 L 192.578125 8.941406 Z M 213.066406 81.042969 L 243.472656 81.042969 L 243.472656 68.671875 L 227.902344 68.671875 L 227.902344 52.171875 L 240.535156 52.171875 L 240.535156 37.402344 L 228.140625 37.402344 L 228.140625 22.742188 L 244.8125 22.742188 L 244.8125 9.660156 L 213.066406 9.660156 Z M 246.261719 58.515625 L 246.261719 64.964844 C 246.261719 77.269531 254.574219 82.800781 263.019531 82.800781 C 272.59375 82.800781 280.710938 78.847656 281.667969 62.328125 C 281.722656 61.359375 281.84375 60.261719 281.589844 59.234375 C 276.566406 38.75 258.183594 36.640625 259.128906 25.269531 C 259.539062 20.328125 261.597656 19.75 263.316406 19.75 C 266.167969 19.75 266.835938 22.796875 266.835938 30.921875 L 280.152344 30.921875 L 280.152344 28.65625 C 280.152344 12.96875 271.917969 7.21875 263.019531 7.398438 C 252.914062 7.597656 246.5 13.152344 245.496094 25.460938 C 245.449219 26.039062 245.3125 26.515625 245.347656 27.296875 C 246.308594 49.007812 268.179688 52.640625 268.179688 62.351562 C 268.179688 67.105469 266.457031 69.8125 263.175781 69.707031 C 260.542969 69.625 258.859375 67.582031 258.859375 62.550781 L 258.859375 58.515625 Z M 285.300781 81.042969 L 316.183594 81.042969 L 316.183594 68.671875 L 299.660156 68.671875 L 299.660156 51.933594 L 312.058594 51.933594 L 312.058594 37.882812 L 300.375 37.882812 L 300.375 22.742188 L 316.570312 22.742188 L 316.570312 9.183594 L 285.300781 9.183594 Z M 320.308594 81.042969 L 349.234375 81.042969 L 349.234375 68.429688 L 335.78125 68.429688 L 335.78125 9.902344 L 320.308594 9.902344 Z M 346.589844 9.941406 C 346.320312 9.941406 346.050781 9.96875 345.785156 10.019531 C 345.519531 10.074219 345.261719 10.152344 345.011719 10.253906 C 344.761719 10.359375 344.523438 10.484375 344.300781 10.636719 C 344.074219 10.785156 343.867188 10.957031 343.675781 11.148438 C 343.484375 11.339844 343.3125 11.550781 343.164062 11.773438 C 343.011719 12 342.886719 12.238281 342.785156 12.488281 C 342.683594 12.738281 342.605469 12.996094 342.554688 13.261719 C 342.5 13.527344 342.476562 13.796875 342.476562 14.066406 C 342.476562 14.339844 342.503906 14.605469 342.554688 14.871094 C 342.609375 15.136719 342.683594 15.394531 342.789062 15.644531 C 342.890625 15.898438 343.015625 16.136719 343.167969 16.359375 C 343.316406 16.585938 343.488281 16.792969 343.679688 16.988281 C 343.867188 17.179688 344.078125 17.351562 344.300781 17.5 C 344.527344 17.652344 344.761719 17.78125 345.011719 17.886719 C 345.261719 17.988281 345.519531 18.070312 345.785156 18.125 C 346.050781 18.175781 346.320312 18.203125 346.589844 18.207031 C 348.847656 18.207031 350.738281 16.351562 350.738281 14.066406 C 350.738281 11.832031 348.824219 9.941406 346.589844 9.941406 Z M 346.589844 10.296875 C 348.613281 10.296875 350.386719 12.042969 350.386719 14.066406 C 350.386719 16.101562 348.691406 17.839844 346.589844 17.839844 C 346.09375 17.832031 345.613281 17.734375 345.15625 17.542969 C 344.699219 17.347656 344.292969 17.074219 343.945312 16.722656 C 343.59375 16.367188 343.324219 15.960938 343.132812 15.503906 C 342.941406 15.042969 342.847656 14.566406 342.84375 14.066406 C 342.84375 12.070312 344.460938 10.296875 346.589844 10.296875 Z M 345.628906 14.304688 L 345.605469 14.304688 C 345.628906 14.226562 345.65625 14.171875 345.761719 14.171875 L 345.945312 14.171875 C 346.535156 14.171875 346.808594 14.867188 347.097656 15.328125 C 347.429688 15.789062 347.664062 16.199219 348.257812 16.328125 C 348.347656 16.273438 348.765625 16.328125 348.765625 16.195312 C 348.765625 16.195312 348.257812 16 348.203125 15.945312 C 347.660156 15.355469 347.203125 14.703125 346.835938 13.988281 C 347.089844 13.859375 347.292969 13.679688 347.453125 13.449219 C 347.570312 13.246094 347.640625 13.027344 347.664062 12.792969 C 347.613281 11.988281 346.835938 11.753906 346.144531 11.714844 C 345.628906 11.714844 345.144531 11.726562 344.632812 11.726562 C 344.578125 11.726562 344.5 11.726562 344.5 11.777344 C 344.5 11.832031 344.5 11.832031 344.632812 11.859375 C 345.023438 11.910156 345.117188 12.253906 345.117188 12.582031 C 345.117188 13.121094 345.117188 13.710938 345.089844 14.328125 C 345.117188 14.605469 345.117188 14.894531 345.117188 15.167969 C 345.117188 15.300781 345.117188 15.539062 345.089844 15.628906 C 345.0625 15.945312 344.894531 16.113281 344.789062 16.140625 C 344.707031 16.167969 344.605469 16.140625 344.605469 16.246094 C 344.605469 16.273438 344.65625 16.300781 344.738281 16.324219 C 344.789062 16.300781 344.816406 16.300781 344.816406 16.300781 L 346.128906 16.300781 C 346.128906 16.300781 346.144531 16.300781 346.195312 16.324219 C 346.273438 16.300781 346.351562 16.273438 346.351562 16.21875 C 346.328125 16.140625 346.144531 16.140625 346.128906 16.140625 C 345.996094 16.101562 345.707031 16.113281 345.628906 15.601562 Z M 345.839844 13.90625 C 345.65625 13.90625 345.628906 13.894531 345.628906 13.683594 C 345.628906 13.253906 345.628906 12.960938 345.605469 12.6875 C 345.65625 12.371094 345.535156 11.9375 345.972656 11.9375 C 346.617188 11.9375 347.15625 12.425781 347.15625 13.066406 C 347.15625 13.84375 346.433594 13.90625 345.839844 13.90625 Z M 24.617188 104.964844 L 24.613281 91.21875 L 30.03125 91.21875 C 31.25 91.21875 32.1875 91.289062 32.828125 91.417969 C 33.730469 91.597656 34.5 91.925781 35.136719 92.402344 C 35.964844 93.015625 36.585938 93.796875 36.996094 94.75 C 37.40625 95.703125 37.613281 96.792969 37.613281 98.019531 C 37.613281 99.0625 37.472656 99.988281 37.195312 100.792969 C 36.914062 101.601562 36.554688 102.269531 36.121094 102.792969 C 35.722656 103.292969 35.246094 103.710938 34.691406 104.042969 C 34.105469 104.371094 33.476562 104.601562 32.816406 104.730469 C 32.082031 104.886719 31.234375 104.964844 30.285156 104.964844 Z M 26.699219 103.34375 L 30.054688 103.34375 C 31.089844 103.34375 31.90625 103.257812 32.496094 103.089844 C 33.082031 102.921875 33.554688 102.679688 33.90625 102.375 C 34.394531 101.949219 34.785156 101.367188 35.058594 100.636719 C 35.332031 99.910156 35.46875 99.027344 35.46875 97.988281 C 35.46875 96.550781 35.199219 95.445312 34.660156 94.675781 C 34.121094 93.902344 33.460938 93.386719 32.691406 93.121094 C 32.136719 92.9375 31.234375 92.839844 30 92.839844 L 26.695312 92.839844 Z M 52.84375 104.964844 L 52.84375 91.21875 L 64.210938 91.21875 L 64.210938 92.839844 L 54.921875 92.839844 L 54.921875 97.050781 L 63.621094 97.050781 L 63.621094 98.667969 L 54.921875 98.667969 L 54.921875 103.347656 L 64.578125 103.347656 L 64.578125 104.96875 L 52.84375 104.96875 Z M 79.75 104.964844 L 79.75 91.21875 L 81.886719 91.21875 L 90.144531 102.011719 L 90.144531 91.21875 L 92.140625 91.21875 L 92.140625 104.964844 L 90.003906 104.964844 L 81.746094 94.167969 L 81.746094 104.964844 Z M 108.3125 104.964844 L 108.308594 91.21875 L 110.390625 91.21875 L 110.390625 104.964844 Z M 126.3125 104.964844 L 126.3125 91.21875 L 129.445312 91.21875 L 133.167969 100.953125 C 133.507812 101.859375 133.761719 102.539062 133.917969 102.988281 C 134.09375 102.488281 134.378906 101.75 134.757812 100.785156 L 138.519531 91.21875 L 141.320312 91.21875 L 141.320312 104.964844 L 139.3125 104.964844 L 139.3125 93.460938 L 134.742188 104.964844 L 132.867188 104.964844 L 128.320312 93.261719 L 128.320312 104.964844 Z M 169.890625 104.964844 L 169.886719 91.21875 L 175.304688 91.21875 C 176.527344 91.21875 177.460938 91.289062 178.101562 91.417969 C 179.007812 91.597656 179.773438 91.925781 180.40625 92.402344 C 181.234375 93.015625 181.859375 93.796875 182.269531 94.75 C 182.679688 95.703125 182.886719 96.792969 182.886719 98.019531 C 182.902344 98.96875 182.761719 99.890625 182.46875 100.792969 C 182.1875 101.601562 181.832031 102.269531 181.394531 102.792969 C 180.996094 103.292969 180.519531 103.710938 179.96875 104.042969 C 179.378906 104.371094 178.753906 104.601562 178.089844 104.730469 C 177.355469 104.886719 176.511719 104.964844 175.558594 104.964844 Z M 171.972656 103.34375 L 175.328125 103.34375 C 176.363281 103.34375 177.179688 103.257812 177.765625 103.089844 C 178.355469 102.921875 178.828125 102.679688 179.175781 102.375 C 179.667969 101.949219 180.054688 101.367188 180.328125 100.636719 C 180.601562 99.910156 180.742188 99.027344 180.742188 97.988281 C 180.742188 96.550781 180.472656 95.445312 179.933594 94.675781 C 179.394531 93.902344 178.734375 93.386719 177.964844 93.121094 C 177.40625 92.9375 176.507812 92.839844 175.273438 92.839844 L 171.96875 92.839844 Z M 198.429688 104.964844 L 198.425781 91.21875 L 200.507812 91.21875 L 200.507812 104.964844 Z M 220.992188 104.964844 L 214.894531 91.21875 L 217.148438 91.21875 L 221.234375 101.207031 C 221.5625 102.003906 221.835938 102.761719 222.0625 103.457031 C 222.304688 102.707031 222.589844 101.957031 222.910156 101.207031 L 227.15625 91.21875 L 229.28125 91.21875 L 223.125 104.964844 Z M 243.820312 104.964844 L 243.816406 91.21875 L 245.898438 91.21875 L 245.898438 104.964844 Z M 261.179688 100.550781 L 263.140625 100.398438 C 263.234375 101.089844 263.453125 101.65625 263.789062 102.09375 C 264.128906 102.535156 264.660156 102.894531 265.375 103.160156 C 266.085938 103.433594 266.894531 103.570312 267.785156 103.570312 C 268.578125 103.570312 269.285156 103.464844 269.890625 103.261719 C 270.492188 103.054688 270.949219 102.769531 271.246094 102.410156 C 271.535156 102.074219 271.683594 101.683594 271.6875 101.238281 C 271.691406 100.804688 271.550781 100.425781 271.261719 100.105469 C 270.976562 99.78125 270.5 99.511719 269.847656 99.292969 C 269.425781 99.148438 268.492188 98.925781 267.046875 98.621094 C 265.605469 98.320312 264.589844 98.03125 264.011719 97.765625 C 263.261719 97.421875 262.703125 96.996094 262.335938 96.484375 C 261.960938 95.976562 261.777344 95.40625 261.78125 94.773438 C 261.78125 94.082031 262.007812 93.429688 262.457031 92.832031 C 262.90625 92.226562 263.566406 91.769531 264.433594 91.457031 C 265.367188 91.132812 266.328125 90.972656 267.320312 90.988281 C 268.484375 90.988281 269.511719 91.152344 270.402344 91.476562 C 271.289062 91.800781 271.972656 92.289062 272.453125 92.925781 C 272.933594 93.5625 273.195312 94.289062 273.226562 95.09375 L 271.230469 95.222656 C 271.125 94.355469 270.757812 93.699219 270.140625 93.257812 C 269.523438 92.808594 268.609375 92.589844 267.40625 92.589844 C 266.148438 92.589844 265.230469 92.792969 264.65625 93.195312 C 264.078125 93.597656 263.789062 94.082031 263.789062 94.648438 C 263.789062 95.144531 263.996094 95.550781 264.402344 95.871094 C 264.800781 96.191406 265.847656 96.519531 267.539062 96.851562 C 269.226562 97.183594 270.390625 97.476562 271.019531 97.726562 C 271.933594 98.097656 272.609375 98.5625 273.046875 99.128906 C 273.480469 99.695312 273.699219 100.347656 273.699219 101.082031 C 273.699219 101.8125 273.457031 102.503906 272.984375 103.152344 C 272.503906 103.796875 271.816406 104.300781 270.917969 104.660156 C 269.941406 105.035156 268.929688 105.214844 267.886719 105.199219 C 266.464844 105.199219 265.269531 105.019531 264.308594 104.65625 C 263.351562 104.296875 262.589844 103.75 262.046875 103.023438 C 261.492188 102.292969 261.203125 101.46875 261.179688 100.550781 Z M 289.214844 104.964844 L 289.210938 91.21875 L 291.289062 91.21875 L 291.289062 104.964844 Z M 306.648438 98.273438 C 306.648438 95.988281 307.351562 94.203125 308.75 92.914062 C 310.152344 91.625 311.964844 90.976562 314.175781 90.976562 C 315.628906 90.976562 316.933594 91.285156 318.101562 91.882812 C 319.246094 92.460938 320.132812 93.308594 320.765625 94.421875 C 321.378906 95.503906 321.683594 96.734375 321.683594 98.109375 C 321.683594 99.503906 321.363281 100.753906 320.71875 101.851562 C 320.066406 102.96875 319.152344 103.800781 317.984375 104.351562 C 316.773438 104.925781 315.503906 105.207031 314.167969 105.199219 C 312.683594 105.199219 311.363281 104.886719 310.199219 104.261719 C 309.03125 103.640625 308.152344 102.785156 307.550781 101.703125 C 306.953125 100.621094 306.648438 99.476562 306.648438 98.273438 Z M 308.792969 98.300781 C 308.792969 99.957031 309.300781 101.261719 310.320312 102.214844 C 311.335938 103.167969 312.617188 103.644531 314.152344 103.644531 C 315.71875 103.644531 317.007812 103.164062 318.019531 102.199219 C 319.03125 101.238281 319.539062 99.871094 319.539062 98.101562 C 319.539062 96.984375 319.320312 96.003906 318.890625 95.171875 C 318.460938 94.328125 317.828125 93.683594 316.992188 93.230469 C 316.117188 92.757812 315.183594 92.527344 314.1875 92.542969 C 312.714844 92.542969 311.449219 92.984375 310.382812 93.867188 C 309.324219 94.753906 308.789062 96.230469 308.789062 98.300781 Z M 336.664062 104.964844 L 336.664062 91.21875 L 338.800781 91.21875 L 347.058594 102.011719 L 347.058594 91.21875 L 349.054688 91.21875 L 349.054688 104.964844 L 346.921875 104.964844 L 338.660156 94.167969 L 338.660156 104.964844 Z M 336.664062 104.964844 " fill-opacity="1" fill-rule="evenodd"/></svg>