<svg xmlns="http://www.w3.org/2000/svg" xmlns:xlink="http://www.w3.org/1999/xlink" width="500" zoomAndPan="magnify" viewBox="0 0 375 112.499997" height="150" preserveAspectRatio="xMidYMid meet" version="1.0"><defs><clipPath id="80a4e78105"><path d="M 331 6.285156 L 362 6.285156 L 362 41 L 331 41 Z M 331 6.285156 " clip-rule="nonzero"/></clipPath></defs><g clip-path="url(#80a4e78105)"><path fill="#000000" d="M 343.023438 7.234375 C 339.527344 8.390625 338.292969 9.171875 336.03125 11.691406 C 331.183594 17.011719 330.152344 24.722656 333.320312 32.066406 C 334.265625 34.335938 337.757812 37.921875 340.226562 39.160156 C 343.597656 40.851562 346.3125 41.222656 349.558594 40.441406 C 353.011719 39.574219 355.3125 38.210938 357.410156 35.859375 C 361.316406 31.363281 362.960938 24.230469 361.273438 18.992188 C 359.097656 12.390625 355.726562 8.800781 350.050781 7.113281 C 347.214844 6.285156 345.859375 6.285156 343.023438 7.234375 Z M 351.574219 10.578125 C 357.617188 13.175781 360.988281 21.589844 358.683594 28.355469 C 357.492188 31.820312 356.011719 33.964844 353.382812 35.777344 C 344.914062 41.71875 333.894531 34.953125 333.894531 23.777344 C 333.894531 13.628906 342.941406 6.863281 351.574219 10.578125 Z M 351.574219 10.578125 " fill-opacity="1" fill-rule="nonzero"/></g><path fill="#000000" d="M 340.679688 15.113281 C 339.734375 15.484375 339.734375 15.609375 339.734375 23.570312 C 339.734375 31.902344 339.980469 33.261719 341.335938 33.261719 C 342.324219 33.261719 342.609375 32.191406 342.609375 28.394531 L 342.609375 25.425781 L 344.089844 25.425781 C 345.859375 25.425781 347.296875 26.785156 348.984375 30.046875 C 350.460938 32.972656 350.75 33.261719 351.941406 33.261719 C 353.421875 33.261719 353.464844 32.3125 352.105469 30.25 C 351.410156 29.21875 350.832031 28.230469 350.832031 28.066406 C 350.832031 27.898438 350.339844 27.242188 349.722656 26.582031 L 348.652344 25.464844 L 350.464844 23.816406 C 352.191406 22.289062 352.273438 22.125 352.273438 19.898438 C 352.273438 17.878906 352.105469 17.464844 351.039062 16.390625 C 349.886719 15.238281 349.558594 15.15625 345.695312 14.949219 C 343.390625 14.824219 341.171875 14.867188 340.679688 15.113281 Z M 347.832031 17.628906 C 349.230469 18.164062 349.597656 18.660156 349.597656 20.351562 C 349.597656 21.21875 349.351562 21.835938 348.902344 22.042969 C 347.707031 22.660156 345.078125 23.03125 343.804688 22.746094 C 342.652344 22.496094 342.609375 22.375 342.609375 20.0625 C 342.609375 18.535156 342.816406 17.589844 343.144531 17.464844 C 344.050781 17.09375 346.640625 17.175781 347.832031 17.628906 Z M 241.644531 19.609375 C 239.054688 20.394531 236.09375 22.042969 234.695312 23.527344 C 230.460938 27.859375 228.734375 32.355469 228.734375 38.789062 C 228.734375 47.246094 231.980469 52.320312 241.476562 58.917969 C 246.246094 62.175781 247.027344 62.753906 247.234375 63.003906 C 247.355469 63.125 248.632812 64.035156 250.070312 65.023438 C 253.976562 67.703125 258.867188 72.695312 259.976562 75.128906 C 260.71875 76.820312 260.882812 77.933594 260.882812 81.316406 C 260.921875 86.183594 260.144531 88.371094 257.511719 91.007812 C 254.839844 93.691406 253.113281 94.351562 248.671875 94.351562 C 245.21875 94.351562 244.519531 94.183594 242.011719 93.03125 C 240.492188 92.289062 238.886719 91.378906 238.519531 90.96875 C 238.105469 90.597656 237.492188 90.019531 237.078125 89.6875 C 234.652344 87.914062 230.996094 82.058594 229.1875 77.109375 C 228.28125 74.632812 227.296875 73.683594 226.265625 74.304688 C 225.816406 74.59375 225.898438 75.542969 226.882812 83.378906 C 228.363281 95.09375 228.734375 97.691406 228.941406 98.0625 C 229.515625 98.96875 230.789062 98.394531 231.363281 96.988281 C 232.3125 94.761719 233.542969 94.390625 236.421875 95.503906 C 241.519531 97.484375 246.988281 98.847656 249.90625 98.847656 C 256.03125 98.847656 261.210938 96.785156 265.324219 92.660156 C 268.40625 89.566406 269.96875 86.636719 270.871094 82.347656 C 271.984375 77.148438 271.449219 72.40625 269.269531 67.785156 C 268.078125 65.269531 262.734375 59.453125 259.894531 57.558594 C 256.402344 55.207031 245.136719 46.996094 243.246094 45.390625 C 236.914062 40.109375 235.558594 31.859375 240.203125 26.953125 C 242.546875 24.476562 244.273438 23.777344 248.136719 23.777344 C 251.097656 23.777344 251.796875 23.941406 254.46875 25.21875 C 260.058594 27.941406 263.390625 32.273438 265.9375 40.191406 C 266.925781 43.203125 267.171875 43.617188 267.914062 43.492188 C 268.695312 43.367188 268.816406 43.121094 268.777344 41.304688 C 268.734375 38.417969 267.871094 27.652344 267.253906 22.949219 C 266.84375 19.527344 266.679688 19.03125 265.980469 19.03125 C 265.488281 19.03125 264.828125 19.652344 264.253906 20.683594 C 263.472656 22.167969 263.144531 22.332031 261.621094 22.457031 C 260.429688 22.539062 259.074219 22.25 257.347656 21.507812 C 250.933594 18.824219 246.289062 18.25 241.644531 19.609375 Z M 298.375 19.609375 C 292.496094 21.382812 288.304688 25.671875 286.246094 32.109375 C 285.136719 35.65625 285.136719 42.542969 286.289062 45.59375 C 288.097656 50.257812 291.714844 54.421875 297.472656 58.382812 C 309.761719 66.839844 315.027344 71.417969 316.710938 75.128906 C 318.027344 78.015625 318.109375 84.535156 316.835938 87.296875 C 315.683594 89.894531 314.078125 91.667969 311.613281 93.070312 C 309.679688 94.183594 309.1875 94.308594 305.527344 94.308594 C 301.871094 94.308594 301.253906 94.183594 298.746094 92.988281 C 295.375 91.421875 292.207031 88.535156 289.824219 84.863281 C 287.972656 82.015625 285.753906 77.519531 285.300781 75.664062 C 285.054688 74.550781 283.78125 73.808594 283 74.304688 C 282.546875 74.59375 282.628906 75.789062 283.617188 83.378906 C 283.945312 85.851562 284.480469 90.101562 284.851562 92.824219 C 285.179688 95.503906 285.589844 97.855469 285.714844 98.0625 C 286.246094 98.96875 287.523438 98.394531 288.097656 96.988281 C 289.167969 94.515625 290.03125 94.433594 295.578125 96.289062 C 301.335938 98.269531 304.007812 98.847656 307.050781 98.847656 C 309.96875 98.847656 314.285156 97.816406 317.082031 96.453125 C 319.507812 95.257812 323.988281 91.175781 325.054688 89.152344 C 328.015625 83.542969 328.839844 78.222656 327.644531 72.652344 C 326.207031 65.972656 321.769531 60.941406 310.339844 53.0625 C 299.566406 45.636719 296.195312 42.378906 294.757812 38.046875 C 292.949219 32.5625 295.003906 27.199219 299.816406 24.683594 C 302.15625 23.445312 307.171875 23.402344 309.925781 24.601562 C 316.054688 27.242188 320.207031 32.066406 322.261719 39.039062 C 323.207031 42.296875 323.824219 43.367188 324.726562 43.367188 C 325.425781 43.367188 325.550781 43.078125 325.507812 41.511719 C 325.46875 38.582031 324.523438 27.242188 323.988281 22.949219 C 323.535156 19.527344 323.371094 19.03125 322.714844 19.03125 C 322.015625 19.03125 321.109375 20.105469 320.164062 22 C 319.753906 22.867188 316.753906 22.621094 313.875 21.464844 C 307.089844 18.742188 303.019531 18.25 298.375 19.609375 Z M 42.421875 19.855469 C 36.292969 20.96875 31.195312 23.777344 25.933594 28.972656 C 24.207031 30.746094 22.769531 32.273438 22.769531 32.4375 C 22.769531 32.644531 22.113281 33.757812 21.289062 34.953125 C 13.066406 47.203125 12.039062 66.425781 18.90625 79.75 C 21.535156 84.90625 24.703125 88.65625 29.347656 92.121094 C 40.613281 100.539062 56.644531 101.113281 71.980469 93.609375 C 76.789062 91.296875 76.542969 92.207031 76.707031 76.117188 C 76.828125 63.332031 76.871094 62.257812 77.609375 61.023438 C 78.433594 59.703125 80.777344 58.421875 82.378906 58.421875 C 82.996094 58.421875 83.203125 58.136719 83.203125 57.390625 C 83.203125 56.816406 82.957031 56.359375 82.707031 56.359375 C 72.679688 56.195312 58.289062 56.445312 58 56.734375 C 57.34375 57.390625 58.042969 58.421875 59.109375 58.421875 C 60.671875 58.421875 64.207031 59.703125 64.949219 60.527344 C 66.265625 61.972656 66.714844 66.382812 66.757812 77.316406 C 66.757812 89.8125 66.714844 89.976562 63.222656 91.628906 C 52.203125 96.867188 40.695312 94.144531 33.335938 84.492188 C 28.359375 78.015625 26.46875 71.046875 26.46875 59.289062 C 26.46875 49.597656 27.457031 44.027344 30.292969 37.800781 C 35.882812 25.550781 49.53125 20.3125 61.003906 26.085938 C 61.785156 26.457031 63.757812 28.105469 65.320312 29.714844 C 68.195312 32.644531 68.277344 32.808594 72.84375 42.253906 C 73.292969 43.246094 73.707031 43.574219 74.320312 43.492188 C 75.144531 43.367188 75.1875 43.160156 75.101562 36.355469 C 75.0625 32.480469 74.9375 27.074219 74.773438 24.269531 C 74.488281 19.402344 74.445312 19.238281 73.542969 19.238281 C 72.925781 19.238281 72.265625 19.773438 71.527344 20.886719 C 70.5 22.496094 70.375 22.539062 68.195312 22.539062 C 66.921875 22.539062 64.621094 22.085938 62.769531 21.464844 C 56.191406 19.320312 48.667969 18.703125 42.421875 19.855469 Z M 87.027344 21.136719 C 86.695312 22.042969 87.148438 22.289062 90.355469 23.15625 C 93.851562 24.0625 95.082031 25.09375 95.578125 27.488281 C 95.742188 28.519531 95.90625 37.882812 95.945312 48.316406 C 95.945312 68.28125 96.359375 77.234375 97.46875 81.316406 C 98.414062 84.78125 100.261719 88.574219 102.195312 91.050781 C 103.796875 93.113281 108.03125 96.125 110.746094 97.15625 C 116.707031 99.382812 126.738281 99.464844 132.328125 97.320312 C 136.277344 95.835938 137.839844 94.84375 140.347656 92.289062 C 143.511719 89.070312 145.238281 85.851562 146.554688 80.492188 C 147.375 76.984375 147.457031 75.542969 147.746094 53.679688 C 147.910156 40.976562 148.238281 29.839844 148.445312 28.929688 C 149.226562 25.507812 150.582031 24.230469 154.695312 23.117188 C 156.871094 22.496094 157.203125 22.25 157.121094 21.546875 C 156.996094 20.683594 156.832031 20.683594 145.484375 20.683594 C 134.507812 20.683594 133.972656 20.722656 133.972656 21.464844 C 133.972656 22.042969 134.632812 22.457031 136.644531 23.117188 C 143.386719 25.425781 143.429688 25.589844 143.429688 52.855469 C 143.429688 73.066406 143.183594 77.4375 141.703125 82.058594 C 140.265625 86.636719 137.222656 90.226562 133.234375 92.039062 C 132.042969 92.578125 129.535156 93.238281 127.601562 93.527344 C 118.722656 94.804688 111.527344 91.296875 108.566406 84.203125 C 106.71875 79.832031 106.636719 78.429688 106.636719 52.523438 C 106.636719 22.621094 106.183594 24.808594 112.636719 23.03125 C 114.855469 22.414062 115.472656 22.085938 115.472656 21.464844 C 115.472656 20.722656 114.898438 20.683594 101.375 20.558594 C 88.835938 20.476562 87.273438 20.515625 87.027344 21.136719 Z M 160.65625 21.09375 C 160.285156 22.042969 160.820312 22.457031 163.164062 22.949219 C 166.246094 23.609375 167.890625 24.808594 168.671875 27.074219 C 169.207031 28.683594 169.289062 32.808594 169.328125 58.835938 C 169.328125 86.472656 169.289062 88.90625 168.589844 90.84375 C 167.765625 93.195312 167.148438 93.648438 163.164062 94.679688 C 161.1875 95.214844 160.695312 95.503906 160.695312 96.164062 C 160.695312 96.988281 160.984375 96.988281 188.035156 96.988281 L 215.375 96.988281 L 215.824219 95.339844 C 216.113281 94.433594 216.648438 92.207031 217.015625 90.390625 C 217.429688 88.574219 217.921875 86.511719 218.128906 85.851562 C 218.867188 83.335938 219.730469 78.59375 219.484375 78.222656 C 219.113281 77.644531 217.796875 77.726562 217.304688 78.304688 C 217.058594 78.59375 216.113281 80.367188 215.167969 82.222656 C 213.113281 86.183594 210.109375 89.484375 207.4375 90.636719 C 203.902344 92.164062 199.09375 92.78125 191.035156 92.78125 C 182.402344 92.742188 181.003906 92.453125 180.058594 90.433594 C 179.113281 88.371094 179.074219 60.445312 180.019531 59.660156 C 180.511719 59.25 182.976562 59.167969 190.664062 59.332031 C 200.164062 59.539062 200.777344 59.578125 202.175781 60.445312 C 203.945312 61.558594 204.683594 62.878906 205.875 67.042969 C 206.699219 69.847656 206.863281 70.179688 207.769531 70.179688 L 208.796875 70.179688 L 208.917969 57.105469 C 209 44.109375 209 44.027344 208.136719 43.78125 C 206.945312 43.367188 206.699219 43.738281 205.753906 47.410156 C 204.808594 51.039062 203.78125 52.730469 201.890625 53.804688 C 200.738281 54.421875 199.257812 54.503906 190.089844 54.503906 L 179.605469 54.503906 L 179.484375 40.976562 C 179.402344 29.46875 179.484375 27.28125 180.019531 26.25 L 180.675781 25.011719 L 191.898438 25.011719 C 204.4375 25.011719 206.207031 25.300781 208.632812 27.652344 C 210.109375 29.097656 210.523438 29.960938 211.46875 33.632812 C 212.167969 36.398438 212.90625 37.304688 214.140625 36.808594 C 214.839844 36.5625 214.878906 35.984375 214.632812 28.890625 C 214.46875 24.683594 214.261719 21.054688 214.140625 20.847656 C 213.976562 20.640625 203.121094 20.476562 187.375 20.476562 C 164.601562 20.476562 160.859375 20.558594 160.65625 21.09375 Z M 160.65625 21.09375 " fill-opacity="1" fill-rule="nonzero"/></svg>