<svg xmlns="http://www.w3.org/2000/svg" xmlns:xlink="http://www.w3.org/1999/xlink" width="500" zoomAndPan="magnify" viewBox="0 0 375 112.499997" height="150" preserveAspectRatio="xMidYMid meet" version="1.0"><defs><clipPath id="9df175f710"><path d="M 71.25 1.882812 L 303.46875 1.882812 L 303.46875 85 L 71.25 85 Z M 71.25 1.882812 " clip-rule="nonzero"/></clipPath><clipPath id="a652afa44d"><path d="M 94 49 L 280 49 L 280 110.148438 L 94 110.148438 Z M 94 49 " clip-rule="nonzero"/></clipPath></defs><g clip-path="url(#9df175f710)"><path fill="#da352f" d="M 171.183594 36.707031 C 172.277344 36.863281 196.589844 36.707031 200.414062 36.746094 C 201.273438 36.746094 201.859375 36.980469 201.664062 35.964844 C 201.195312 35.691406 198.578125 35.339844 197.722656 35.144531 C 196.433594 34.832031 195.144531 34.519531 193.894531 34.089844 C 192.648438 33.660156 191.554688 33.230469 190.421875 32.679688 C 187.730469 31.351562 183.945312 28.617188 182.109375 26.347656 C 178.910156 22.363281 178.167969 15.835938 182.226562 12.238281 C 186.753906 8.253906 194.128906 10.597656 194.480469 15.40625 C 194.792969 19.3125 191.671875 20.566406 189.488281 19.46875 C 189.796875 19.117188 190.539062 19 190.929688 17.828125 C 191.242188 16.890625 190.890625 15.914062 190.460938 15.328125 C 189.640625 14.195312 187.964844 13.253906 185.972656 14.039062 C 182.226562 15.5625 183.28125 20.058594 185.582031 22.050781 C 191.007812 26.742188 198.578125 24.707031 202.171875 18.570312 C 205.253906 13.253906 203.027344 5.007812 195.574219 2.703125 C 192.21875 1.6875 187.457031 2 183.671875 2 C 179.496094 2 175.203125 1.882812 171.066406 2 Z M 255.246094 68.601562 C 254.933594 65.671875 255.832031 62.855469 258.171875 62.230469 C 263.988281 60.667969 265.160156 71.335938 260.359375 72.707031 C 258.953125 73.097656 257.46875 72.707031 256.652344 71.925781 C 255.792969 71.179688 255.363281 70.085938 255.246094 68.601562 Z M 262.933594 59.847656 C 262.113281 59.183594 261.492188 57.695312 258.71875 57.070312 C 256.652344 56.601562 254.386719 57.109375 252.90625 58.046875 C 246.347656 62.191406 247.480469 74.230469 253.101562 77.277344 C 255.324219 78.492188 259.226562 78.960938 261.53125 77.238281 C 261.878906 76.964844 262.152344 76.730469 262.464844 76.417969 C 262.738281 76.144531 263.011719 75.753906 263.324219 75.519531 L 263.324219 77.863281 L 269.609375 77.863281 L 269.609375 49.800781 L 262.972656 49.800781 Z M 81.304688 62.503906 C 84.308594 62.074219 85.714844 64.457031 85.832031 67.234375 C 85.949219 70.125 85.167969 72.824219 82.515625 73.175781 C 79.394531 73.605469 78.027344 71.21875 77.910156 68.40625 C 77.792969 65.4375 78.652344 62.894531 81.304688 62.503906 Z M 77.792969 59.847656 L 77.792969 57.539062 L 71.390625 57.539062 L 71.390625 84.746094 L 78.066406 84.785156 L 78.066406 75.597656 C 78.691406 76.066406 78.808594 76.496094 79.9375 77.277344 C 82.359375 78.921875 86.066406 78.570312 88.328125 77.238281 C 95.667969 72.941406 93.988281 55.351562 82.242188 57.1875 C 79.316406 57.578125 78.339844 59.457031 77.792969 59.847656 Z M 224.570312 68.328125 C 224.6875 70.554688 224.492188 72.394531 223.207031 73.410156 C 222.035156 74.347656 219.417969 74.777344 218.210938 73.605469 C 217.703125 73.097656 217.429688 72.082031 217.664062 71.140625 C 217.898438 70.28125 218.5625 69.929688 219.378906 69.65625 C 220.667969 69.226562 222.074219 69.148438 223.363281 68.757812 C 223.828125 68.640625 224.179688 68.445312 224.570312 68.328125 Z M 211.847656 63.792969 L 217.9375 63.792969 C 218.484375 62.425781 218.523438 60.746094 222.269531 61.175781 C 223.363281 61.292969 224.101562 61.722656 224.375 62.582031 C 225.390625 65.710938 221.332031 65.359375 217.585938 65.984375 C 215.945312 66.257812 213.449219 66.882812 212.550781 67.976562 C 211.925781 68.71875 211.574219 68.875 211.183594 70.007812 C 210.871094 70.90625 210.753906 72.121094 210.910156 73.136719 C 211.730469 79.078125 219.613281 79.390625 223.59375 76.730469 C 223.945312 76.496094 224.257812 76.183594 224.648438 75.988281 C 224.6875 76.535156 224.84375 77.355469 225.078125 77.824219 L 231.714844 77.824219 C 231.714844 77.472656 231.285156 76.144531 231.207031 75.519531 C 231.011719 74.074219 231.089844 68.328125 231.089844 66.648438 C 231.089844 61.957031 231.441406 59.808594 227.769531 58.046875 C 224.570312 56.523438 216.609375 56.25 213.527344 59.496094 C 212.746094 60.238281 211.613281 62.230469 211.847656 63.792969 Z M 289.550781 60.082031 L 289.550781 57.539062 L 283.148438 57.539062 L 283.148438 77.863281 L 289.785156 77.863281 C 289.902344 76.886719 289.824219 70.125 289.824219 68.523438 C 289.824219 65.359375 289.902344 62.738281 293.179688 62.503906 C 297.082031 62.230469 296.691406 65.125 296.691406 68.328125 C 296.691406 71.453125 296.652344 74.660156 296.691406 77.824219 L 303.328125 77.863281 C 303.40625 74.777344 303.328125 71.652344 303.328125 68.5625 C 303.328125 65.828125 303.640625 62.191406 302.390625 60.121094 C 299.96875 56.171875 293.179688 56.132812 290.175781 59.496094 C 289.902344 59.730469 289.863281 59.886719 289.550781 60.082031 Z M 163.808594 65.359375 C 163.769531 64.183594 164.46875 63.128906 165.054688 62.542969 C 166.539062 61.058594 169.738281 61.175781 171.066406 62.582031 C 171.574219 63.128906 172.199219 64.300781 172.238281 65.320312 Z M 178.363281 71.691406 L 172.160156 71.652344 C 171.886719 71.769531 170.675781 74.660156 166.8125 73.644531 C 164.546875 73.058594 163.417969 70.671875 163.691406 69.226562 L 178.714844 69.226562 C 179.066406 62.699219 175.632812 58.007812 170.050781 57.148438 C 155.535156 54.921875 152.371094 74.816406 164.625 77.863281 C 168.722656 78.882812 173.757812 78.101562 176.492188 74.972656 C 177.074219 74.386719 178.207031 72.746094 178.363281 71.691406 Z M 118.847656 65.359375 L 110.496094 65.359375 C 110.417969 64.261719 111.199219 63.089844 111.707031 62.582031 C 113.230469 61.058594 116.15625 61.175781 117.675781 62.503906 C 118.183594 62.972656 118.886719 64.261719 118.847656 65.359375 Z M 125.015625 71.652344 L 118.769531 71.652344 C 118.261719 72.433594 117.832031 73.058594 116.898438 73.488281 C 116 73.878906 114.59375 73.957031 113.539062 73.683594 C 112.527344 73.410156 111.785156 72.902344 111.277344 72.160156 C 110.769531 71.414062 110.339844 70.359375 110.457031 69.265625 L 125.40625 69.226562 C 125.445312 62.660156 122.59375 58.085938 116.742188 57.148438 C 106.398438 55.546875 100.894531 65.632812 105.265625 73.410156 C 108.78125 79.625 119.121094 79.625 123.179688 75.050781 C 123.726562 74.503906 124.976562 72.785156 125.015625 71.652344 Z M 210.054688 69.851562 L 203.652344 69.851562 C 203.300781 71.179688 203.144531 71.769531 202.285156 72.589844 C 201.585938 73.253906 200.140625 73.566406 198.890625 73.253906 C 196.746094 72.746094 195.925781 70.554688 195.925781 67.9375 C 195.925781 65.320312 196.589844 63.011719 198.460938 62.191406 C 199.476562 61.722656 200.882812 61.800781 201.859375 62.308594 C 202.792969 62.816406 203.144531 63.558594 203.457031 64.886719 L 209.9375 64.886719 C 210.015625 62.464844 208.296875 60.042969 206.308594 58.714844 C 204.277344 57.34375 201.117188 56.757812 198.1875 57.148438 C 192.726562 57.851562 189.136719 61.917969 189.175781 67.9375 C 189.214844 73.878906 193.039062 77.824219 198.65625 78.257812 C 201.664062 78.492188 204.628906 77.824219 206.578125 76.339844 C 208.140625 75.167969 209.859375 72.785156 210.054688 69.851562 Z M 134.148438 60.824219 L 134.109375 57.5 L 127.707031 57.460938 C 127.589844 59.300781 127.707031 65.320312 127.707031 67.585938 C 127.707031 68.992188 127.589844 77.121094 127.746094 77.785156 L 134.304688 77.785156 C 134.652344 76.339844 134.070312 68.875 134.496094 66.570312 C 134.808594 64.886719 135.628906 63.871094 136.917969 63.246094 C 138.75 62.386719 140.078125 62.972656 141.953125 63.128906 L 141.953125 57.226562 C 139.453125 56.328125 137.113281 57.1875 135.394531 59.027344 C 135.003906 59.535156 134.574219 60.433594 134.148438 60.824219 Z M 240.492188 60.902344 L 240.453125 57.539062 L 234.054688 57.539062 L 234.054688 77.824219 L 240.6875 77.863281 C 240.726562 74.503906 240.378906 69.734375 241 66.726562 C 241.351562 65.003906 242.132812 63.949219 243.382812 63.363281 C 244.125 63.011719 244.863281 62.894531 245.761719 62.894531 C 246.660156 62.894531 247.714844 63.207031 248.339844 63.207031 L 248.339844 57.34375 C 246.425781 56.328125 243.226562 57.34375 241.78125 59.144531 C 241.117188 59.847656 240.6875 60.628906 240.492188 60.902344 Z M 240.492188 60.902344 " fill-opacity="1" fill-rule="nonzero"/></g><g clip-path="url(#a652afa44d)"><path fill="#da352f" d="M 149.367188 60.902344 L 149.367188 57.5 L 142.964844 57.5 L 142.964844 77.824219 L 149.601562 77.824219 C 149.914062 75.597656 149.289062 68.835938 149.757812 66.570312 C 150.109375 64.925781 150.929688 63.832031 152.214844 63.285156 C 154.285156 62.386719 155.339844 63.128906 157.25 63.167969 L 157.25 57.304688 C 155.84375 56.523438 153.542969 57.03125 152.332031 57.734375 C 150.5 58.714844 150.070312 60.121094 149.367188 60.902344 Z M 273.121094 77.824219 L 279.753906 77.863281 L 279.753906 57.539062 L 273.121094 57.539062 Z M 94.925781 77.824219 L 101.558594 77.863281 L 101.597656 57.539062 L 94.925781 57.5 Z M 187.847656 102.878906 L 187.847656 99.871094 C 188.707031 99.792969 190.1875 99.832031 191.046875 99.871094 C 193.390625 99.949219 193.390625 102.722656 191.125 102.878906 C 190.226562 102.917969 188.785156 102.957031 187.847656 102.878906 Z M 192.726562 104.445312 C 192.921875 104.40625 192.960938 104.40625 193.195312 104.328125 C 195.808594 103.386719 195.847656 100.261719 194.324219 98.738281 C 193.429688 97.839844 191.828125 97.800781 190.265625 97.800781 C 188.667969 97.800781 186.988281 97.761719 185.386719 97.800781 L 185.386719 109.914062 L 187.847656 109.914062 L 187.847656 104.914062 C 189.953125 104.601562 190.460938 105.617188 191.242188 106.789062 L 193.390625 109.914062 L 196.238281 109.914062 C 196.082031 109.367188 194.832031 107.570312 194.441406 107.023438 C 193.777344 105.96875 193.234375 105.226562 192.21875 104.679688 Z M 201.78125 106.007812 C 201.625 107.296875 202.636719 108.625 203.300781 109.171875 C 204.824219 110.425781 208.882812 110.582031 210.523438 108.898438 C 211.261719 108.15625 211.808594 106.90625 211.457031 105.382812 C 210.832031 102.722656 208.101562 102.878906 205.566406 101.902344 C 204.980469 101.667969 204.394531 101.433594 204.511719 100.652344 C 204.589844 100.066406 205.292969 99.753906 205.878906 99.675781 C 208.414062 99.285156 208.453125 100.613281 208.804688 101.355469 L 211.183594 101.238281 C 211.300781 99.871094 210.367188 98.738281 209.585938 98.269531 C 208.570312 97.644531 207.046875 97.488281 205.644531 97.644531 C 202.054688 98.074219 201.46875 101.199219 202.792969 102.917969 C 204.472656 105.070312 208.570312 104.484375 209.039062 106.046875 C 209.46875 107.492188 207.789062 108.15625 206.425781 108.078125 C 204.355469 107.921875 204.433594 106.4375 204.003906 105.773438 Z M 177.894531 100.730469 C 178.167969 101.082031 179.417969 104.523438 179.574219 105.109375 L 176.335938 105.109375 Z M 174.5 109.875 C 174.929688 109.25 175.320312 107.257812 175.671875 107.140625 L 180.394531 107.140625 L 181.445312 109.875 L 184.140625 109.835938 L 179.300781 97.722656 L 176.6875 97.722656 L 172.003906 109.835938 Z M 165.601562 99.871094 C 167.359375 99.832031 169.933594 99.519531 169.894531 101.628906 C 169.855469 103.621094 167.398438 103.347656 165.601562 103.308594 Z M 165.601562 105.382812 C 167.4375 105.070312 169.230469 105.734375 170.871094 104.71875 C 173.132812 103.269531 173.367188 98.152344 168.957031 97.878906 C 167.867188 97.800781 164.082031 97.683594 163.183594 97.878906 L 163.183594 109.953125 L 165.640625 109.953125 Z M 273.121094 54.804688 L 279.714844 54.804688 L 279.753906 49.722656 L 273.121094 49.722656 Z M 94.925781 54.804688 L 101.519531 54.804688 L 101.558594 49.722656 L 94.925781 49.722656 Z M 197.566406 109.914062 L 200.023438 109.875 L 200.023438 97.800781 L 197.566406 97.800781 Z M 197.566406 109.914062 " fill-opacity="1" fill-rule="nonzero"/></g></svg>