<svg xmlns="http://www.w3.org/2000/svg" xmlns:xlink="http://www.w3.org/1999/xlink" width="500" zoomAndPan="magnify" viewBox="0 0 375 112.499997" height="150" preserveAspectRatio="xMidYMid meet" version="1.0"><defs><clipPath id="fa78db3853"><path d="M 0.828125 0 L 374.167969 0 L 374.167969 112.003906 L 0.828125 112.003906 Z M 0.828125 0 " clip-rule="nonzero"/></clipPath></defs><g clip-path="url(#fa78db3853)"><path fill="#ffffff" d="M 0.828125 -130.667969 L 374.171875 -130.667969 L 374.171875 242.671875 L 0.828125 242.671875 Z M 0.828125 -130.667969 " fill-opacity="1" fill-rule="evenodd"/></g><path fill="#000000" d="M 85.113281 26.808594 L 91.117188 26.808594 C 95.207031 26.808594 99.574219 27.082031 102.847656 28.992188 C 109.125 32.265625 113.214844 38.8125 113.214844 45.90625 C 113.34375 48.136719 113.105469 50.328125 112.496094 52.480469 C 111.890625 54.632812 110.945312 56.625 109.667969 58.457031 C 108.03125 60.367188 106.9375 61.457031 106.121094 62 C 105.300781 62.824219 103.9375 63.640625 103.121094 63.910156 C 99.847656 65.820312 95.753906 66.636719 91.933594 66.636719 L 79.382812 66.636719 L 79.382812 83.828125 L 68.742188 83.828125 L 68.742188 26.808594 Z M 236.8125 83.828125 L 236.8125 65.003906 C 236.8125 62.824219 236.8125 60.09375 237.085938 58.1875 C 237.628906 54.636719 240.085938 51.910156 243.089844 50.546875 C 245.546875 49.453125 248.542969 49.453125 251.273438 49.453125 L 251.273438 39.632812 C 247.726562 39.359375 244.179688 39.90625 241.453125 41.269531 C 239.269531 42.359375 237.90625 44.269531 236.539062 45.90625 L 236.265625 40.453125 L 236.265625 40.179688 L 226.445312 40.179688 L 226.445312 83.285156 L 226.171875 83.828125 Z M 351.949219 26.808594 L 351.949219 45.089844 L 351.671875 44.816406 C 348.945312 42.085938 345.398438 40.175781 341.304688 39.628906 C 332.304688 38.265625 323.84375 42.359375 319.207031 49.726562 C 315.65625 54.910156 315.113281 62.273438 316.75 68.550781 C 318.660156 76.191406 325.207031 82.46875 333.117188 84.101562 C 339.394531 85.464844 345.941406 84.101562 350.308594 80.285156 C 350.851562 80.007812 351.398438 79.191406 351.945312 78.917969 C 351.945312 80.554688 351.945312 82.191406 352.21875 83.828125 L 362.3125 83.828125 L 362.3125 26.808594 Z M 165.328125 83.828125 L 175.96875 83.828125 L 175.96875 26.808594 L 165.328125 26.808594 Z M 300.929688 83.828125 L 311.566406 83.828125 L 311.566406 39.359375 L 300.929688 39.359375 Z M 209.800781 83.828125 L 219.894531 83.828125 L 220.167969 82.46875 L 219.894531 62.273438 L 219.894531 54.636719 C 219.621094 51.636719 218.53125 48.636719 216.625 46.179688 C 214.441406 43.449219 211.710938 41.8125 208.167969 40.722656 C 203.800781 39.085938 198.34375 39.085938 193.976562 40.175781 C 187.976562 41.542969 183.066406 46.453125 181.699219 52.453125 L 181.699219 53.546875 L 192.34375 53.546875 L 192.886719 52.453125 C 193.433594 50.816406 195.070312 49.453125 196.710938 48.636719 C 199.710938 47.273438 203.253906 48.089844 205.164062 48.636719 C 208.4375 50.273438 209.53125 53.273438 209.53125 56.277344 L 198.34375 56.277344 C 194.25 56.550781 189.882812 57.09375 186.335938 59.003906 C 183.335938 60.640625 181.15625 63.640625 180.335938 66.917969 C 179.246094 72.644531 181.152344 78.101562 185.246094 81.375 C 188.792969 84.375 193.976562 84.925781 199.164062 84.375 C 203.253906 84.101562 207.074219 82.195312 209.53125 78.921875 Z M 207.890625 71.828125 C 205.980469 74.554688 202.703125 75.648438 199.160156 76.191406 C 195.882812 76.191406 192.613281 75.371094 190.972656 72.371094 C 190.15625 70.734375 190.15625 68.003906 191.515625 66.367188 C 193.425781 63.640625 196.703125 63.367188 199.703125 63.097656 L 203.25 63.097656 L 209.523438 62.824219 L 209.523438 63.097656 C 209.527344 66.367188 209.527344 69.371094 207.890625 71.828125 Z M 160.691406 66.097656 C 160.964844 63.824219 160.964844 61.550781 160.691406 59.277344 C 159.871094 51.367188 154.6875 44.542969 147.59375 41.542969 C 143.230469 39.632812 137.769531 39.085938 132.859375 39.902344 C 125.496094 41.269531 119.492188 45.90625 116.765625 51.636719 C 113.765625 57.367188 114.035156 62.824219 114.582031 66.097656 C 116.21875 75.917969 124.402344 83.558594 135.042969 84.375 C 139.136719 84.652344 142.957031 84.375 147.046875 82.742188 C 154.140625 80.007812 159.328125 73.464844 160.691406 66.097656 Z M 146.503906 71.828125 C 143.230469 74.828125 138.316406 76.191406 133.953125 74.828125 C 129.3125 73.738281 125.492188 69.375 124.675781 64.460938 C 124.128906 60.367188 124.945312 56.546875 127.402344 53.546875 C 130.675781 49.453125 135.863281 47.542969 141.042969 49.179688 C 145.957031 50.546875 149.773438 54.910156 150.320312 60.09375 C 150.867188 64.460938 149.503906 68.828125 146.503906 71.828125 Z M 296.289062 66.097656 C 296.835938 63.914062 296.835938 61.457031 296.5625 59.277344 C 295.472656 51.367188 290.289062 44.542969 283.46875 41.542969 C 279.101562 39.632812 273.644531 39.085938 268.460938 39.902344 C 261.09375 41.269531 255.363281 45.90625 252.636719 51.636719 C 249.359375 57.367188 249.632812 62.824219 250.179688 66.097656 C 251.816406 75.917969 260 83.558594 270.640625 84.375 C 275.007812 84.652344 278.828125 84.375 282.917969 82.742188 C 289.742188 80.007812 295.195312 73.464844 296.289062 66.097656 Z M 282.101562 71.828125 C 279.101562 74.828125 274.1875 76.191406 269.550781 74.828125 C 264.914062 73.738281 261.367188 69.375 260.546875 64.460938 C 260.003906 60.367188 260.820312 56.546875 263.28125 53.546875 C 266.28125 49.453125 271.734375 47.542969 276.921875 49.179688 C 281.558594 50.546875 285.375 54.910156 285.921875 60.09375 C 286.46875 64.460938 285.375 68.828125 282.101562 71.828125 Z M 95.480469 56.546875 C 96.300781 56.273438 97.390625 55.726562 98.210938 54.910156 C 101.210938 52.453125 102.851562 48.089844 101.757812 43.722656 C 100.667969 40.722656 98.484375 37.996094 95.480469 36.902344 C 93.027344 36.085938 90.027344 36.085938 87.570312 36.085938 L 79.65625 36.085938 L 79.65625 57.363281 L 88.660156 57.363281 C 91.117188 57.363281 93.84375 57.089844 95.480469 56.546875 Z M 348.402344 71.828125 C 345.128906 75.097656 339.398438 76.464844 334.757812 74.828125 C 333.902344 74.265625 332.992188 73.8125 332.027344 73.464844 C 330.667969 72.375 329.300781 71.007812 328.210938 69.375 C 326.300781 66.097656 326.027344 61.460938 327.117188 57.636719 C 328.210938 53 332.578125 49.179688 337.488281 48.636719 C 342.398438 47.816406 347.035156 50 349.765625 53.820312 C 351.949219 57.09375 352.496094 61.460938 351.671875 65.550781 C 351.402344 68.003906 350.039062 70.1875 348.402344 71.828125 Z M 300.929688 35.539062 L 311.566406 35.539062 L 311.566406 26.808594 L 300.929688 26.808594 Z M 300.929688 35.539062 " fill-opacity="1" fill-rule="evenodd"/><path fill="#f5d130" d="M 26.597656 57.089844 L 19.507812 50.273438 L 12.683594 57.089844 L 19.507812 64.1875 Z M 26.597656 57.089844 " fill-opacity="1" fill-rule="evenodd"/><path fill="#e0912f" d="M 33.421875 50.273438 L 26.597656 43.175781 L 19.507812 50.273438 L 26.597656 57.089844 Z M 33.421875 50.273438 " fill-opacity="1" fill-rule="evenodd"/><path fill="#cf432e" d="M 40.515625 43.175781 L 33.421875 36.359375 L 26.597656 43.175781 L 33.421875 50.273438 Z M 40.515625 43.175781 " fill-opacity="1" fill-rule="evenodd"/><path fill="#cb1862" d="M 47.335938 36.359375 L 40.515625 29.261719 L 33.421875 36.359375 L 40.515625 43.175781 Z M 47.335938 36.359375 " fill-opacity="1" fill-rule="evenodd"/><path fill="#909e87" d="M 33.421875 64.1875 L 26.597656 57.089844 L 19.507812 64.1875 L 26.597656 71.28125 Z M 33.421875 64.1875 " fill-opacity="1" fill-rule="evenodd"/><path fill="#958a6f" d="M 40.515625 57.089844 L 33.421875 50.273438 L 26.597656 57.089844 L 33.421875 64.1875 Z M 40.515625 57.089844 " fill-opacity="1" fill-rule="evenodd"/><path fill="#918264" d="M 47.335938 50.273438 L 40.515625 43.175781 L 33.421875 50.273438 L 40.515625 57.089844 Z M 47.335938 50.273438 " fill-opacity="1" fill-rule="evenodd"/><path fill="#90845b" d="M 54.429688 43.175781 L 47.335938 36.359375 L 40.515625 43.175781 L 47.335938 50.273438 Z M 54.429688 43.175781 " fill-opacity="1" fill-rule="evenodd"/><path fill="#5e86b6" d="M 40.515625 71.28125 L 33.421875 64.1875 L 26.597656 71.28125 L 33.421875 78.101562 Z M 40.515625 71.28125 " fill-opacity="1" fill-rule="evenodd"/><path fill="#698399" d="M 47.335938 64.1875 L 40.515625 57.089844 L 33.421875 64.1875 L 40.515625 71.28125 Z M 47.335938 64.1875 " fill-opacity="1" fill-rule="evenodd"/><path fill="#648d73" d="M 54.429688 57.089844 L 47.335938 50.273438 L 40.515625 57.089844 L 47.335938 64.1875 Z M 54.429688 57.089844 " fill-opacity="1" fill-rule="evenodd"/><path fill="#699751" d="M 61.519531 50.273438 L 54.429688 43.175781 L 47.335938 50.273438 L 54.429688 57.089844 Z M 61.519531 50.273438 " fill-opacity="1" fill-rule="evenodd"/><path fill="#2860aa" d="M 47.335938 78.101562 L 40.515625 71.28125 L 33.421875 78.101562 L 40.515625 85.195312 Z M 47.335938 78.101562 " fill-opacity="1" fill-rule="evenodd"/><path fill="#1e71b8" d="M 54.429688 71.28125 L 47.335938 64.1875 L 40.515625 71.28125 L 47.335938 78.101562 Z M 54.429688 71.28125 " fill-opacity="1" fill-rule="evenodd"/><path fill="#307f79" d="M 61.519531 64.1875 L 54.429688 57.089844 L 47.335938 64.1875 L 54.429688 71.28125 Z M 61.519531 64.1875 " fill-opacity="1" fill-rule="evenodd"/><path fill="#32a45a" d="M 68.34375 57.089844 L 61.519531 50.273438 L 54.429688 57.089844 L 61.519531 64.1875 Z M 68.34375 57.089844 " fill-opacity="1" fill-rule="evenodd"/></svg>