<svg xmlns="http://www.w3.org/2000/svg" xmlns:xlink="http://www.w3.org/1999/xlink" width="500" zoomAndPan="magnify" viewBox="0 0 375 112.499997" height="150" preserveAspectRatio="xMidYMid meet" version="1.0"><defs><clipPath id="fa2cb2af99"><path d="M 72.851562 0 L 302.082031 0 L 302.082031 112.003906 L 72.851562 112.003906 Z M 72.851562 0 " clip-rule="nonzero"/></clipPath></defs><g clip-path="url(#fa2cb2af99)"><path fill="#ffffff" d="M 72.851562 -58.660156 L 302.082031 -58.660156 L 302.082031 170.570312 L 72.851562 170.570312 Z M 72.851562 -58.660156 " fill-opacity="1" fill-rule="evenodd"/></g><path fill="#000000" d="M 294.457031 24.476562 C 294.175781 24.476562 293.898438 24.503906 293.621094 24.558594 C 293.347656 24.613281 293.082031 24.691406 292.820312 24.800781 C 292.5625 24.90625 292.316406 25.039062 292.085938 25.195312 C 291.851562 25.351562 291.636719 25.527344 291.4375 25.726562 C 291.238281 25.921875 291.0625 26.136719 290.90625 26.371094 C 290.75 26.605469 290.621094 26.851562 290.511719 27.109375 C 290.40625 27.367188 290.324219 27.636719 290.269531 27.910156 C 290.214844 28.183594 290.1875 28.460938 290.1875 28.742188 C 290.1875 29.023438 290.214844 29.300781 290.269531 29.574219 C 290.324219 29.851562 290.40625 30.117188 290.511719 30.375 C 290.621094 30.632812 290.75 30.878906 290.90625 31.113281 C 291.0625 31.347656 291.238281 31.5625 291.4375 31.761719 C 291.636719 31.957031 291.851562 32.136719 292.085938 32.289062 C 292.316406 32.445312 292.5625 32.578125 292.820312 32.683594 C 293.082031 32.792969 293.347656 32.875 293.621094 32.929688 C 293.898438 32.984375 294.175781 33.011719 294.457031 33.011719 C 294.734375 33.007812 295.011719 32.980469 295.289062 32.925781 C 295.5625 32.871094 295.828125 32.789062 296.089844 32.683594 C 296.347656 32.574219 296.59375 32.441406 296.828125 32.285156 C 297.058594 32.128906 297.273438 31.953125 297.472656 31.753906 C 297.671875 31.554688 297.847656 31.339844 298 31.105469 C 298.15625 30.871094 298.289062 30.625 298.394531 30.367188 C 298.5 30.105469 298.582031 29.839844 298.632812 29.5625 C 298.6875 29.289062 298.714844 29.011719 298.710938 28.730469 C 298.710938 28.453125 298.683594 28.175781 298.628906 27.902344 C 298.574219 27.625 298.496094 27.359375 298.386719 27.101562 C 298.28125 26.84375 298.148438 26.597656 297.996094 26.367188 C 297.839844 26.132812 297.664062 25.917969 297.464844 25.722656 C 297.269531 25.523438 297.050781 25.347656 296.820312 25.191406 C 296.585938 25.035156 296.34375 24.90625 296.085938 24.796875 C 295.824219 24.691406 295.558594 24.609375 295.285156 24.554688 C 295.011719 24.503906 294.734375 24.476562 294.457031 24.476562 Z M 294.457031 32.496094 C 293.957031 32.496094 293.476562 32.402344 293.015625 32.210938 C 292.554688 32.019531 292.148438 31.746094 291.796875 31.394531 C 291.445312 31.039062 291.171875 30.632812 290.984375 30.171875 C 290.792969 29.710938 290.699219 29.230469 290.703125 28.730469 C 290.703125 28.234375 290.796875 27.757812 290.988281 27.296875 C 291.179688 26.839844 291.449219 26.433594 291.804688 26.082031 C 292.15625 25.730469 292.5625 25.460938 293.019531 25.273438 C 293.480469 25.082031 293.957031 24.988281 294.457031 24.988281 C 294.953125 24.988281 295.429688 25.085938 295.886719 25.273438 C 296.34375 25.464844 296.75 25.734375 297.101562 26.085938 C 297.453125 26.4375 297.722656 26.839844 297.910156 27.300781 C 298.101562 27.757812 298.195312 28.234375 298.195312 28.730469 C 298.199219 29.230469 298.105469 29.707031 297.917969 30.167969 C 297.730469 30.628906 297.457031 31.039062 297.109375 31.390625 C 296.757812 31.742188 296.351562 32.015625 295.890625 32.207031 C 295.433594 32.398438 294.953125 32.496094 294.457031 32.496094 Z M 294.457031 32.496094 " fill-opacity="1" fill-rule="evenodd"/><path fill="#000000" d="M 296.648438 27.613281 C 296.648438 27.210938 296.46875 26.789062 296.113281 26.585938 C 295.753906 26.375 295.351562 26.351562 294.949219 26.351562 L 292.871094 26.351562 L 292.871094 31.121094 L 293.453125 31.121094 L 293.453125 28.921875 L 294.523438 28.921875 L 295.886719 31.121094 L 296.582031 31.121094 L 295.136719 28.921875 C 295.988281 28.898438 296.648438 28.550781 296.648438 27.613281 Z M 294.347656 28.464844 L 293.453125 28.464844 L 293.453125 26.777344 L 294.8125 26.777344 C 295.40625 26.777344 296.054688 26.867188 296.054688 27.605469 C 296.054688 28.574219 295.015625 28.464844 294.347656 28.464844 Z M 151.574219 99.117188 L 123.761719 85.539062 C 123.152344 85.222656 122.835938 84.414062 122.847656 83.886719 L 122.921875 76.386719 C 122.933594 75.859375 123.039062 75.316406 123.730469 74.820312 C 126.703125 72.925781 135.910156 67.828125 145.421875 53.949219 C 158.089844 35.457031 145.421875 19.925781 125.625 24.152344 C 108.039062 27.910156 90.136719 37.429688 82.375 42.605469 C 75.453125 47.21875 76.414062 52.792969 76.222656 57.792969 C 76.605469 59.90625 77.375 59.714844 79.105469 57.597656 C 91.984375 45.683594 111.59375 36.648438 115.246094 35.109375 C 118.894531 33.574219 127.546875 28.382812 137.734375 30.6875 C 147.519531 32.90625 145.144531 46.210938 142.15625 51.832031 C 138.886719 57.984375 129.566406 66.921875 125.335938 69.132812 C 123.730469 69.972656 123.125 69.132812 123.125 67.785156 L 123.800781 38.855469 C 123.800781 36.933594 122.933594 36.070312 121.011719 36.742188 L 117.9375 38.28125 C 115.820312 39.53125 115.917969 40.011719 115.726562 41.546875 L 115.257812 74.898438 C 115.246094 75.617188 114.910156 76.195312 114.511719 76.367188 L 104.480469 82.007812 C 102.175781 83.164062 102.75 84.894531 104.480469 85.46875 L 112.554688 89.3125 C 114.476562 90.082031 115.054688 90.660156 115.054688 92.582031 L 114.765625 108.726562 C 121.972656 107.285156 122.453125 103.824219 122.644531 101.519531 L 122.644531 96.617188 C 122.835938 95.464844 123.511719 95.078125 124.472656 95.273438 L 147.921875 106.613281 C 150.035156 107.574219 151.191406 107.1875 152.726562 104.5 C 154.265625 101.808594 154.457031 100.464844 151.574219 99.117188 Z M 192.554688 58.378906 C 189.296875 60.261719 187.789062 63.78125 189.074219 66.003906 C 190.355469 68.230469 194.230469 68.601562 197.492188 66.71875 C 200.753906 64.835938 202.164062 61.410156 200.878906 59.1875 C 199.597656 56.964844 195.816406 56.496094 192.554688 58.378906 Z M 192.554688 58.378906 " fill-opacity="1" fill-rule="evenodd"/><path fill="#000000" d="M 180.53125 60.773438 C 179.644531 61.851562 177.9375 65.144531 176.976562 67.164062 C 176.015625 69.179688 173.996094 73.746094 171.976562 73.746094 C 169.84375 73.746094 169.574219 68.460938 169.574219 66.539062 C 169.574219 64.617188 168.421875 64.328125 167.84375 64.425781 C 167.265625 64.519531 165.632812 65.097656 165.152344 67.117188 C 164.671875 69.132812 162.078125 77.878906 159.195312 77.878906 C 157.367188 77.878906 156.023438 72.59375 155.925781 70.960938 C 155.832031 69.328125 155.0625 67.980469 153.425781 67.980469 C 152.273438 67.980469 150.832031 68.558594 150.253906 69.230469 C 149.679688 69.90625 149.582031 70.960938 146.507812 70.289062 C 143.71875 70.191406 141.027344 71.636719 137.761719 77.113281 C 135.792969 80.410156 134.195312 86.554688 137.183594 89.03125 C 139.972656 91.335938 144.871094 87.203125 146.316406 85.472656 C 147.757812 83.742188 149.007812 82.492188 149.582031 81.535156 C 150.160156 80.570312 150.738281 80.667969 151.023438 81.628906 C 151.3125 82.589844 152.945312 86.339844 155.0625 86.242188 C 157.175781 86.148438 159.867188 84.511719 163.039062 78.9375 C 163.617188 77.785156 164.480469 77.878906 164.671875 78.839844 C 164.867188 79.804688 166.113281 82.976562 168.230469 82.976562 C 170.246094 82.976562 172.492188 79.769531 173.613281 77.882812 C 174.378906 76.585938 175.535156 77.210938 175.535156 78.457031 C 175.535156 79.707031 174.957031 109.214844 174.957031 109.214844 C 174.957031 110.558594 175.484375 110.941406 176.445312 110.941406 L 180.625 110.941406 C 181.394531 110.941406 182.066406 110.269531 182.066406 109.214844 L 182.933594 61.398438 C 182.933594 60.242188 181.636719 59.425781 180.53125 60.773438 Z M 147.855469 79.609375 C 146.988281 81.050781 144.683594 84.894531 142.664062 84.222656 C 141.605469 83.648438 143.015625 79.800781 143.722656 78.457031 C 144.777344 76.4375 147.878906 73.226562 149.296875 74.035156 C 150.640625 74.804688 148.71875 78.167969 147.855469 79.609375 Z M 294.292969 50.132812 C 293.910156 50.46875 293.285156 51.042969 291.890625 50.417969 C 289.488281 49.457031 289.296875 44.941406 288.050781 40.808594 C 286.925781 37.09375 284.222656 37.328125 283.242188 39.03125 L 280.3125 43.738281 C 279.78125 44.699219 278.628906 46.910156 277.476562 46.910156 C 276.128906 46.910156 276.730469 44.988281 276.804688 43.066406 C 276.851562 41.769531 276.035156 40.136719 274.6875 40.136719 C 273.152344 40.136719 271.519531 42.488281 270.269531 45.179688 C 269.394531 47.0625 267.144531 54.265625 264.308594 54.265625 C 262.484375 54.265625 262.289062 48.976562 262.195312 47.34375 C 262.101562 45.710938 261.523438 43.691406 259.890625 43.691406 C 258.78125 43.691406 258.0625 44.265625 257.484375 44.941406 C 256.910156 45.613281 256.816406 46.1875 254.796875 45.902344 C 252.007812 45.804688 247.394531 48.402344 244.128906 53.878906 C 242.160156 57.175781 239.792969 64.089844 242.78125 66.566406 C 245.570312 68.871094 250.566406 63.488281 252.007812 61.757812 C 253.449219 60.027344 254.699219 58.777344 255.277344 57.820312 C 255.851562 56.859375 256.429688 56.953125 256.714844 57.914062 C 257.003906 58.875 258.640625 62.625 260.753906 62.527344 C 262.871094 62.433594 264.597656 61.953125 267.769531 56.378906 C 268.347656 55.226562 269.402344 55.082031 269.59375 56.042969 C 269.789062 57.003906 269.980469 59.550781 272 59.550781 C 275.457031 59.550781 279.378906 51.132812 280.359375 49.167969 C 281.226562 47.4375 282.617188 47.917969 283.097656 49.214844 C 283.785156 51.074219 284.394531 57.050781 288.144531 57.050781 C 291.890625 57.050781 294.4375 53.0625 295.207031 51.8125 C 296.074219 50.5625 295.625 48.96875 294.292969 50.132812 Z M 253.542969 55.898438 C 252.679688 57.339844 250.757812 60.511719 248.738281 59.835938 C 247.683594 59.261719 248.996094 56.472656 249.699219 55.128906 C 250.757812 53.109375 253.855469 49.847656 255.277344 50.660156 C 256.621094 51.429688 254.410156 54.457031 253.542969 55.898438 Z M 234.976562 50.859375 C 234.976562 50.859375 226.808594 44.902344 224.5 42.210938 C 222.953125 40.402344 224.019531 39.039062 224.980469 38.269531 C 230.746094 34.425781 239.78125 28.46875 243.339844 19.242188 C 246.765625 10.347656 241.414062 2.613281 237.570312 1.363281 C 232.300781 -0.347656 221.136719 3.09375 215.5625 13.472656 C 211.953125 20.195312 210.277344 22.414062 209.796875 40.671875 C 209.703125 44.132812 209.601562 48.074219 209.601562 52.398438 C 209.601562 56.722656 209.121094 68.449219 208.640625 70.660156 C 206.816406 75.847656 212.292969 72.773438 214.792969 70.757812 C 217.289062 68.738281 217.097656 65.710938 217.097656 64.414062 C 217.097656 62.777344 217.195312 33.945312 218.058594 27.507812 C 218.597656 23.5 219.214844 16.070312 223.441406 9.628906 C 227.671875 3.191406 231.996094 5.785156 233.148438 6.84375 C 234.300781 7.898438 235.9375 10.589844 235.070312 16.070312 C 233.726562 24.570312 223.921875 33.847656 221.421875 36.730469 C 218.921875 39.613281 219.5 42.113281 220.941406 44.132812 C 221.96875 45.566406 224.5 48.363281 227.09375 50.957031 C 229.6875 53.550781 229.398438 55.859375 229.015625 57.589844 C 227.667969 62.777344 213.636719 76.808594 213.636719 76.808594 C 210.65625 79.980469 213.734375 85.171875 214.789062 86.902344 C 215.847656 88.632812 217.195312 88.054688 218.058594 86.613281 C 221.519531 80.175781 236.414062 64.605469 236.414062 64.605469 C 240.746094 59.125 238.917969 53.839844 234.976562 50.859375 Z M 234.976562 50.859375 " fill-opacity="1" fill-rule="evenodd"/></svg>