<svg xmlns="http://www.w3.org/2000/svg" xmlns:xlink="http://www.w3.org/1999/xlink" width="500" zoomAndPan="magnify" viewBox="0 0 375 112.499997" height="150" preserveAspectRatio="xMidYMid meet" version="1.0"><defs><clipPath id="db982ca563"><path d="M 8.671875 13.527344 L 29.515625 13.527344 L 29.515625 47.371094 L 8.671875 47.371094 Z M 8.671875 13.527344 " clip-rule="nonzero"/></clipPath><clipPath id="d460ef6e34"><path d="M 28.660156 19.15625 L 24.6875 21.503906 C 23.945312 20.210938 23.234375 19.375 22.558594 18.980469 C 21.863281 18.523438 20.949219 18.304688 19.84375 18.304688 C 18.488281 18.304688 17.355469 18.683594 16.472656 19.457031 C 15.589844 20.226562 15.132812 21.160156 15.132812 22.308594 C 15.132812 23.886719 16.3125 25.164062 18.664062 26.125 L 21.894531 27.449219 C 24.527344 28.523438 26.453125 29.816406 27.667969 31.34375 C 28.878906 32.875 29.496094 34.75 29.496094 36.972656 C 29.496094 39.953125 28.503906 42.414062 26.515625 44.367188 C 24.527344 46.324219 22.023438 47.300781 19.058594 47.300781 C 16.25 47.300781 13.917969 46.464844 12.085938 44.792969 C 10.289062 43.171875 9.15625 40.820312 8.714844 37.808594 L 13.664062 36.722656 C 13.886719 38.628906 14.28125 39.9375 14.832031 40.664062 C 15.839844 42.066406 17.308594 42.761719 19.246094 42.761719 C 20.777344 42.761719 22.039062 42.253906 23.046875 41.230469 C 24.054688 40.207031 24.558594 38.914062 24.558594 37.351562 C 24.558594 36.722656 24.464844 36.152344 24.292969 35.617188 C 24.117188 35.082031 23.851562 34.609375 23.472656 34.167969 C 23.09375 33.726562 22.621094 33.316406 22.039062 32.921875 C 21.453125 32.527344 20.746094 32.164062 19.941406 31.816406 L 16.800781 30.507812 C 12.371094 28.632812 10.148438 25.890625 10.148438 22.277344 C 10.148438 19.851562 11.078125 17.800781 12.9375 16.160156 C 14.800781 14.519531 17.132812 13.699219 19.910156 13.699219 C 23.644531 13.699219 26.5625 15.511719 28.660156 19.15625 " clip-rule="nonzero"/></clipPath><clipPath id="0d7bd3b6e8"><path d="M 36.480469 14.332031 L 54.363281 14.332031 L 54.363281 18.933594 L 36.480469 18.933594 Z M 36.480469 18.933594 L 41.367188 18.933594 L 41.367188 26.722656 L 36.480469 26.722656 Z M 36.480469 26.722656 L 53.984375 26.722656 L 53.984375 31.328125 L 36.480469 31.328125 Z M 36.480469 31.328125 L 41.367188 31.328125 L 41.367188 42.160156 L 36.480469 42.160156 Z M 36.480469 42.160156 L 54.363281 42.160156 L 54.363281 46.765625 L 36.480469 46.765625 Z M 36.480469 42.160156 " clip-rule="nonzero"/></clipPath><clipPath id="aa5cb1fe4a"><path d="M 58 14.144531 L 87 14.144531 L 87 49.226562 L 58 49.226562 Z M 58 14.144531 " clip-rule="nonzero"/></clipPath><clipPath id="e4c2d1db73"><path d="M 63.507812 14.332031 L 72.480469 36.800781 L 81.5625 14.332031 L 86.921875 14.332031 L 72.367188 49.179688 L 58.144531 14.332031 Z M 63.507812 14.332031 " clip-rule="nonzero"/></clipPath><clipPath id="7fedc19a22"><path d="M 92.03125 14.332031 L 109.910156 14.332031 L 109.910156 18.933594 L 92.03125 18.933594 Z M 92.03125 18.933594 L 96.917969 18.933594 L 96.917969 26.722656 L 92.03125 26.722656 Z M 92.03125 26.722656 L 109.53125 26.722656 L 109.53125 31.328125 L 92.03125 31.328125 Z M 92.03125 31.328125 L 96.917969 31.328125 L 96.917969 42.160156 L 92.03125 42.160156 Z M 92.03125 42.160156 L 109.910156 42.160156 L 109.910156 46.765625 L 92.03125 46.765625 Z M 92.03125 42.160156 " clip-rule="nonzero"/></clipPath><clipPath id="6c8ddf355e"><path d="M 117.222656 12.082031 L 146 12.082031 L 146 48.816406 L 117.222656 48.816406 Z M 117.222656 12.082031 " clip-rule="nonzero"/></clipPath><clipPath id="2e736fd72c"><path d="M 117.417969 46.75 L 117.417969 12.125 L 141.070312 36.863281 L 141.070312 14.332031 L 145.957031 14.332031 L 145.957031 48.71875 L 122.304688 24.042969 L 122.304688 46.75 Z M 117.417969 46.75 " clip-rule="nonzero"/></clipPath><clipPath id="fb8a9d52d6"><path d="M 151.398438 14.332031 L 171.167969 14.332031 L 171.167969 18.933594 L 151.398438 18.933594 Z M 158.855469 18.933594 L 163.742188 18.933594 L 163.742188 46.75 L 158.855469 46.75 Z M 158.855469 18.933594 " clip-rule="nonzero"/></clipPath><clipPath id="06d3803bda"><path d="M 195.5 14.332031 L 200.386719 14.332031 L 200.386719 27.007812 L 195.5 27.007812 Z M 176.625 14.332031 L 181.511719 14.332031 L 181.511719 27.007812 L 176.625 27.007812 Z M 176.625 27.007812 L 200.386719 27.007812 L 200.386719 31.613281 L 176.625 31.613281 Z M 176.625 31.613281 L 181.511719 31.613281 L 181.511719 46.75 L 176.625 46.75 Z M 195.5 31.613281 L 200.386719 31.613281 L 200.386719 46.75 L 195.5 46.75 Z M 195.5 31.613281 " clip-rule="nonzero"/></clipPath><clipPath id="36a1edcf06"><path d="M 313.5 78.09375 L 320.519531 78.09375 L 320.519531 93.328125 L 313.5 93.328125 Z M 313.5 78.09375 " clip-rule="nonzero"/></clipPath><clipPath id="1886c76c9b"><path d="M 317.8125 93.210938 L 313.648438 93.210938 L 316.3125 78.105469 L 320.492188 78.105469 Z M 317.8125 93.210938 " clip-rule="nonzero"/></clipPath><clipPath id="d6fa1931b6"><path d="M 321.921875 66.664062 L 331 66.664062 L 331 93.328125 L 321.921875 93.328125 Z M 321.921875 66.664062 " clip-rule="nonzero"/></clipPath><clipPath id="965d2bee96"><path d="M 328.675781 93.242188 L 321.972656 93.242188 L 321.972656 93.210938 L 321.941406 93.210938 L 326.453125 66.832031 C 327.144531 66.847656 328.089844 66.847656 328.785156 66.847656 C 329.511719 66.847656 330.234375 66.832031 330.960938 66.816406 L 330.347656 70.394531 C 330.316406 70.585938 330.265625 70.789062 330.234375 71.011719 L 326.65625 91.824219 L 328.941406 91.824219 Z M 328.675781 93.242188 " clip-rule="nonzero"/></clipPath><clipPath id="37eae8c8f2"><path d="M 316.507812 74.882812 L 321.117188 74.882812 L 321.117188 76.890625 L 316.507812 76.890625 Z M 316.507812 74.882812 " clip-rule="nonzero"/></clipPath><clipPath id="7c478d4d72"><path d="M 320.726562 76.703125 L 316.550781 76.703125 L 316.863281 74.984375 L 321.042969 74.984375 Z M 320.726562 76.703125 " clip-rule="nonzero"/></clipPath><clipPath id="0512fece72"><path d="M 282.226562 75 L 301.875 75 L 301.875 93.328125 L 282.226562 93.328125 Z M 282.226562 75 " clip-rule="nonzero"/></clipPath><clipPath id="c4eda0be12"><path d="M 295.671875 91.066406 C 294.585938 91.066406 290.722656 91.082031 289.824219 90.988281 C 287.648438 90.75 286.511719 89.882812 286.9375 87.472656 C 287.425781 84.726562 290.941406 84.507812 296.886719 84.507812 Z M 294.410156 75 L 294.410156 75.015625 L 286.589844 75.015625 L 286.292969 76.6875 L 294.679688 76.6875 C 296.113281 76.796875 297.785156 77.554688 297.722656 79.683594 C 297.707031 79.792969 297.707031 79.902344 297.675781 80.011719 L 297.21875 82.644531 C 287.222656 82.644531 283.28125 83.183594 282.414062 88.132812 C 281.859375 91.269531 283.609375 93.242188 287.488281 93.242188 L 299.566406 93.242188 L 301.492188 82.410156 C 302.515625 76.796875 300.089844 75.03125 294.394531 75.015625 " clip-rule="nonzero"/></clipPath><clipPath id="2cb8189bed"><path d="M 329.941406 75.285156 L 354.597656 75.285156 L 354.597656 93.929688 L 329.941406 93.929688 Z M 329.941406 75.285156 " clip-rule="nonzero"/></clipPath><clipPath id="7f84fb4ed2"><path d="M 342.09375 91.917969 C 337.726562 92.296875 334.320312 89.316406 334.460938 85.265625 C 334.605469 81.210938 338.277344 77.601562 342.628906 77.222656 C 346.980469 76.84375 350.402344 79.808594 350.261719 83.875 C 350.117188 87.945312 346.445312 91.539062 342.09375 91.917969 M 343.828125 75.347656 C 337.078125 75.347656 330.914062 79.476562 330.046875 84.570312 C 329.179688 89.664062 333.941406 93.792969 340.691406 93.792969 C 347.4375 93.792969 353.605469 89.664062 354.472656 84.570312 C 355.339844 79.476562 350.578125 75.347656 343.828125 75.347656 " clip-rule="nonzero"/></clipPath><clipPath id="a33e54c8fe"><path d="M 261 66.664062 L 282 66.664062 L 282 93.929688 L 261 93.929688 Z M 261 66.664062 " clip-rule="nonzero"/></clipPath><clipPath id="f9c44ae4f6"><path d="M 274.183594 78.027344 L 268.976562 76.179688 C 266.550781 75.3125 265.414062 74.070312 265.683594 72.398438 C 266.0625 70.078125 268.851562 68.203125 272.792969 68.1875 C 276.734375 68.171875 279.289062 70.03125 279.8125 73.453125 C 280.171875 73.375 280.535156 73.375 280.929688 73.375 L 281.246094 73.375 L 281.988281 68.738281 C 278.894531 67.382812 275.933594 66.671875 272.808594 66.671875 C 266.457031 66.707031 261.726562 69.921875 261.09375 73.753906 C 260.589844 76.828125 262.433594 78.957031 266.707031 80.5 L 272.320312 82.535156 C 275.851562 83.8125 277.367188 85.058594 276.988281 87.425781 C 276.578125 90.011719 273.394531 92.074219 268.679688 92.089844 C 265.902344 92.105469 263.648438 91.191406 262.199219 89.488281 L 261.679688 92.613281 C 263.949219 93.414062 266.375 93.824219 268.976562 93.808594 C 275.820312 93.777344 280.929688 90.484375 281.65625 86.003906 C 282.269531 82.15625 279.730469 80.042969 274.148438 78.058594 " clip-rule="nonzero"/></clipPath><clipPath id="b11f58f492"><path d="M 277.816406 64.257812 L 300.46875 64.257812 L 300.46875 72.878906 L 277.816406 72.878906 Z M 277.816406 64.257812 " clip-rule="nonzero"/></clipPath><clipPath id="0cadcf6552"><path d="M 298.371094 64.324219 L 297.40625 69.589844 L 284.542969 64.972656 L 277.949219 64.972656 L 298.859375 72.808594 L 300.277344 64.324219 Z M 298.371094 64.324219 " clip-rule="nonzero"/></clipPath><clipPath id="df08cb8e18"><path d="M 302.273438 66.664062 L 322.523438 66.664062 L 322.523438 93.328125 L 302.273438 93.328125 Z M 302.273438 66.664062 " clip-rule="nonzero"/></clipPath><clipPath id="2b03a07b8d"><path d="M 306.394531 93.242188 L 308.917969 78.121094 L 314.042969 78.105469 L 314.246094 76.71875 L 309.140625 76.71875 L 309.957031 72.207031 C 310.449219 69.371094 312.921875 68.535156 314.5625 68.519531 L 322.019531 68.519531 L 322.335938 66.847656 L 315.066406 66.847656 C 309.390625 66.863281 306.441406 68.09375 305.480469 73.707031 L 302.28125 93.226562 Z M 306.394531 93.242188 " clip-rule="nonzero"/></clipPath><clipPath id="58f39b845b"><path d="M 222.082031 71.277344 L 234.914062 71.277344 L 234.914062 93.527344 L 222.082031 93.527344 Z M 222.082031 71.277344 " clip-rule="nonzero"/></clipPath><clipPath id="531c569aa5"><path d="M 231.941406 86.855469 C 231.941406 85.65625 231.609375 84.679688 230.960938 83.921875 C 230.300781 83.152344 229.464844 82.757812 228.472656 82.757812 C 227.398438 82.757812 226.53125 83.136719 225.871094 83.875 C 225.207031 84.617188 224.875 85.578125 224.875 86.761719 C 224.875 87.976562 225.207031 88.953125 225.855469 89.695312 C 226.5 90.4375 227.367188 90.8125 228.425781 90.8125 C 229.433594 90.8125 230.269531 90.4375 230.929688 89.695312 C 231.59375 88.953125 231.941406 87.992188 231.941406 86.855469 M 225.050781 71.277344 L 225.050781 81.953125 C 226.214844 80.753906 227.523438 80.140625 228.992188 80.140625 C 230.679688 80.140625 232.097656 80.769531 233.21875 82.03125 C 234.335938 83.292969 234.90625 84.855469 234.90625 86.714844 C 234.90625 88.652344 234.335938 90.246094 233.203125 91.507812 C 232.066406 92.769531 230.648438 93.382812 228.929688 93.382812 C 227.476562 93.382812 226.183594 92.832031 225.035156 91.710938 L 225.035156 93.023438 L 222.148438 93.023438 L 222.148438 71.277344 Z M 225.050781 71.277344 " clip-rule="nonzero"/></clipPath><clipPath id="02ac30f884"><path d="M 235.714844 80.496094 L 249.949219 80.496094 L 249.949219 99.945312 L 235.714844 99.945312 Z M 235.714844 80.496094 " clip-rule="nonzero"/></clipPath><clipPath id="237d8f4e79"><path d="M 241.464844 90.71875 L 235.820312 80.5 L 239.175781 80.5 L 243.023438 87.722656 L 246.605469 80.5 L 249.882812 80.5 L 239.886719 99.894531 L 236.574219 99.894531 Z M 241.464844 90.71875 " clip-rule="nonzero"/></clipPath><clipPath id="f4fd95f647"><path d="M 221.800781 13.535156 L 242.835938 13.535156 L 242.835938 47.308594 L 221.800781 47.308594 Z M 221.800781 13.535156 " clip-rule="nonzero"/></clipPath><clipPath id="3420f2cffe"><path d="M 241.910156 19.15625 L 237.9375 21.503906 C 237.195312 20.210938 236.488281 19.375 235.808594 18.980469 C 235.117188 18.523438 234.199219 18.304688 233.097656 18.304688 C 231.742188 18.304688 230.605469 18.683594 229.722656 19.453125 C 228.839844 20.226562 228.382812 21.15625 228.382812 22.308594 C 228.382812 23.886719 229.566406 25.164062 231.914062 26.125 L 235.148438 27.449219 C 237.78125 28.523438 239.703125 29.816406 240.917969 31.34375 C 242.132812 32.875 242.746094 34.75 242.746094 36.972656 C 242.746094 39.953125 241.753906 42.414062 239.765625 44.367188 C 237.765625 46.324219 235.273438 47.300781 232.308594 47.300781 C 229.503906 47.300781 227.167969 46.464844 225.339844 44.792969 C 223.542969 43.167969 222.40625 40.835938 221.964844 37.808594 L 226.917969 36.722656 C 227.136719 38.628906 227.53125 39.9375 228.082031 40.664062 C 229.09375 42.066406 230.558594 42.761719 232.496094 42.761719 C 234.027344 42.761719 235.289062 42.253906 236.296875 41.230469 C 237.308594 40.207031 237.8125 38.914062 237.8125 37.351562 C 237.8125 36.722656 237.71875 36.152344 237.542969 35.617188 C 237.371094 35.082031 237.101562 34.609375 236.722656 34.167969 C 236.34375 33.726562 235.871094 33.316406 235.289062 32.921875 C 234.707031 32.527344 233.996094 32.164062 233.191406 31.816406 L 230.054688 30.507812 C 225.625 28.632812 223.398438 25.886719 223.398438 22.277344 C 223.398438 19.847656 224.332031 17.800781 226.191406 16.160156 C 228.050781 14.519531 230.386719 13.699219 233.160156 13.699219 C 236.898438 13.699219 239.8125 15.511719 241.910156 19.15625 " clip-rule="nonzero"/></clipPath><clipPath id="7d6ccde2fa"><path d="M 246.941406 14.332031 L 266.714844 14.332031 L 266.714844 18.933594 L 246.941406 18.933594 Z M 254.398438 18.933594 L 259.289062 18.933594 L 259.289062 46.75 L 254.398438 46.75 Z M 254.398438 18.933594 " clip-rule="nonzero"/></clipPath><clipPath id="28f175fbbe"><path d="M 272 14.308594 L 293.207031 14.308594 L 293.207031 46.921875 L 272 46.921875 Z M 272 14.308594 " clip-rule="nonzero"/></clipPath><clipPath id="3df4217240"><path d="M 277.058594 29.214844 L 278.617188 29.214844 C 283.253906 29.214844 285.574219 27.449219 285.574219 23.902344 C 285.574219 20.589844 283.316406 18.917969 278.808594 18.917969 L 277.058594 18.917969 Z M 283.144531 32.9375 L 293.171875 46.75 L 287.179688 46.75 L 277.941406 33.472656 L 277.058594 33.472656 L 277.058594 46.75 L 272.167969 46.75 L 272.167969 14.332031 L 277.910156 14.332031 C 282.199219 14.332031 285.289062 15.132812 287.195312 16.742188 C 289.292969 18.539062 290.351562 20.90625 290.351562 23.839844 C 290.351562 26.140625 289.6875 28.113281 288.378906 29.765625 C 287.070312 31.421875 285.335938 32.480469 283.175781 32.9375 " clip-rule="nonzero"/></clipPath><clipPath id="8c2770a70a"><path d="M 299.117188 14.332031 L 317.011719 14.332031 L 317.011719 18.933594 L 299.117188 18.933594 Z M 299.117188 18.933594 L 304.019531 18.933594 L 304.019531 26.722656 L 299.117188 26.722656 Z M 299.117188 26.722656 L 316.636719 26.722656 L 316.636719 31.328125 L 299.117188 31.328125 Z M 299.117188 31.328125 L 304.019531 31.328125 L 304.019531 42.160156 L 299.117188 42.160156 Z M 299.117188 42.160156 L 317.011719 42.160156 L 317.011719 46.765625 L 299.117188 46.765625 Z M 299.117188 42.160156 " clip-rule="nonzero"/></clipPath><clipPath id="aaf29391ba"><path d="M 324.519531 14.332031 L 342.398438 14.332031 L 342.398438 18.933594 L 324.519531 18.933594 Z M 324.519531 18.933594 L 329.40625 18.933594 L 329.40625 26.722656 L 324.519531 26.722656 Z M 324.519531 26.722656 L 342.019531 26.722656 L 342.019531 31.328125 L 324.519531 31.328125 Z M 324.519531 31.328125 L 329.40625 31.328125 L 329.40625 42.160156 L 324.519531 42.160156 Z M 324.519531 42.160156 L 342.398438 42.160156 L 342.398438 46.765625 L 324.519531 46.765625 Z M 324.519531 42.160156 " clip-rule="nonzero"/></clipPath><clipPath id="6ef0cb89e2"><path d="M 346.5 14.332031 L 366.289062 14.332031 L 366.289062 18.933594 L 346.5 18.933594 Z M 353.957031 18.933594 L 358.84375 18.933594 L 358.84375 46.75 L 353.957031 46.75 Z M 353.957031 18.933594 " clip-rule="nonzero"/></clipPath></defs><g clip-path="url(#db982ca563)"><g clip-path="url(#d460ef6e34)"><path fill="#231f20" d="M 0.828125 4.238281 L 208.230469 4.238281 L 208.230469 57.070312 L 0.828125 57.070312 Z M 0.828125 4.238281 " fill-opacity="1" fill-rule="nonzero"/></g></g><g clip-path="url(#0d7bd3b6e8)"><path fill="#231f20" d="M 0.828125 4.238281 L 208.230469 4.238281 L 208.230469 57.070312 L 0.828125 57.070312 Z M 0.828125 4.238281 " fill-opacity="1" fill-rule="nonzero"/></g><g clip-path="url(#aa5cb1fe4a)"><g clip-path="url(#e4c2d1db73)"><path fill="#231f20" d="M 0.828125 4.238281 L 208.230469 4.238281 L 208.230469 57.070312 L 0.828125 57.070312 Z M 0.828125 4.238281 " fill-opacity="1" fill-rule="nonzero"/></g></g><g clip-path="url(#7fedc19a22)"><path fill="#231f20" d="M 0.828125 4.238281 L 208.230469 4.238281 L 208.230469 57.070312 L 0.828125 57.070312 Z M 0.828125 4.238281 " fill-opacity="1" fill-rule="nonzero"/></g><g clip-path="url(#6c8ddf355e)"><g clip-path="url(#2e736fd72c)"><path fill="#231f20" d="M 0.828125 4.238281 L 208.230469 4.238281 L 208.230469 57.070312 L 0.828125 57.070312 Z M 0.828125 4.238281 " fill-opacity="1" fill-rule="nonzero"/></g></g><g clip-path="url(#fb8a9d52d6)"><path fill="#231f20" d="M 0.828125 4.238281 L 208.230469 4.238281 L 208.230469 57.070312 L 0.828125 57.070312 Z M 0.828125 4.238281 " fill-opacity="1" fill-rule="nonzero"/></g><g clip-path="url(#06d3803bda)"><path fill="#231f20" d="M 0.828125 4.238281 L 208.230469 4.238281 L 208.230469 57.070312 L 0.828125 57.070312 Z M 0.828125 4.238281 " fill-opacity="1" fill-rule="nonzero"/></g><g clip-path="url(#36a1edcf06)"><g clip-path="url(#1886c76c9b)"><path fill="#231f20" d="M 214.265625 56.441406 L 362.417969 56.441406 L 362.417969 107.761719 L 214.265625 107.761719 Z M 214.265625 56.441406 " fill-opacity="1" fill-rule="nonzero"/></g></g><g clip-path="url(#d6fa1931b6)"><g clip-path="url(#965d2bee96)"><path fill="#231f20" d="M 214.265625 56.441406 L 362.417969 56.441406 L 362.417969 107.761719 L 214.265625 107.761719 Z M 214.265625 56.441406 " fill-opacity="1" fill-rule="nonzero"/></g></g><g clip-path="url(#37eae8c8f2)"><g clip-path="url(#7c478d4d72)"><path fill="#231f20" d="M 214.265625 56.441406 L 362.417969 56.441406 L 362.417969 107.761719 L 214.265625 107.761719 Z M 214.265625 56.441406 " fill-opacity="1" fill-rule="nonzero"/></g></g><g clip-path="url(#0512fece72)"><g clip-path="url(#c4eda0be12)"><path fill="#231f20" d="M 214.265625 56.441406 L 362.417969 56.441406 L 362.417969 107.761719 L 214.265625 107.761719 Z M 214.265625 56.441406 " fill-opacity="1" fill-rule="nonzero"/></g></g><g clip-path="url(#2cb8189bed)"><g clip-path="url(#7f84fb4ed2)"><path fill="#231f20" d="M 214.265625 56.441406 L 362.417969 56.441406 L 362.417969 107.761719 L 214.265625 107.761719 Z M 214.265625 56.441406 " fill-opacity="1" fill-rule="nonzero"/></g></g><g clip-path="url(#a33e54c8fe)"><g clip-path="url(#f9c44ae4f6)"><path fill="#231f20" d="M 214.265625 56.441406 L 362.417969 56.441406 L 362.417969 107.761719 L 214.265625 107.761719 Z M 214.265625 56.441406 " fill-opacity="1" fill-rule="nonzero"/></g></g><g clip-path="url(#b11f58f492)"><g clip-path="url(#0cadcf6552)"><path fill="#231f20" d="M 214.265625 56.441406 L 362.417969 56.441406 L 362.417969 107.761719 L 214.265625 107.761719 Z M 214.265625 56.441406 " fill-opacity="1" fill-rule="nonzero"/></g></g><g clip-path="url(#df08cb8e18)"><g clip-path="url(#2b03a07b8d)"><path fill="#231f20" d="M 214.265625 56.441406 L 362.417969 56.441406 L 362.417969 107.761719 L 214.265625 107.761719 Z M 214.265625 56.441406 " fill-opacity="1" fill-rule="nonzero"/></g></g><g clip-path="url(#58f39b845b)"><g clip-path="url(#531c569aa5)"><path fill="#231f20" d="M 214.265625 56.441406 L 362.417969 56.441406 L 362.417969 107.761719 L 214.265625 107.761719 Z M 214.265625 56.441406 " fill-opacity="1" fill-rule="nonzero"/></g></g><g clip-path="url(#02ac30f884)"><g clip-path="url(#237d8f4e79)"><path fill="#231f20" d="M 214.265625 56.441406 L 362.417969 56.441406 L 362.417969 107.761719 L 214.265625 107.761719 Z M 214.265625 56.441406 " fill-opacity="1" fill-rule="nonzero"/></g></g><g clip-path="url(#f4fd95f647)"><g clip-path="url(#3420f2cffe)"><path fill="#231f20" d="M 214.082031 5.816406 L 374.261719 5.816406 L 374.261719 55.222656 L 214.082031 55.222656 Z M 214.082031 5.816406 " fill-opacity="1" fill-rule="nonzero"/></g></g><g clip-path="url(#7d6ccde2fa)"><path fill="#231f20" d="M 214.082031 5.816406 L 374.261719 5.816406 L 374.261719 55.222656 L 214.082031 55.222656 Z M 214.082031 5.816406 " fill-opacity="1" fill-rule="nonzero"/></g><g clip-path="url(#28f175fbbe)"><g clip-path="url(#3df4217240)"><path fill="#231f20" d="M 214.082031 5.816406 L 374.261719 5.816406 L 374.261719 55.222656 L 214.082031 55.222656 Z M 214.082031 5.816406 " fill-opacity="1" fill-rule="nonzero"/></g></g><g clip-path="url(#8c2770a70a)"><path fill="#231f20" d="M 214.082031 5.816406 L 374.261719 5.816406 L 374.261719 55.222656 L 214.082031 55.222656 Z M 214.082031 5.816406 " fill-opacity="1" fill-rule="nonzero"/></g><g clip-path="url(#aaf29391ba)"><path fill="#231f20" d="M 214.082031 5.816406 L 374.261719 5.816406 L 374.261719 55.222656 L 214.082031 55.222656 Z M 214.082031 5.816406 " fill-opacity="1" fill-rule="nonzero"/></g><g clip-path="url(#6ef0cb89e2)"><path fill="#231f20" d="M 214.082031 5.816406 L 374.261719 5.816406 L 374.261719 55.222656 L 214.082031 55.222656 Z M 214.082031 5.816406 " fill-opacity="1" fill-rule="nonzero"/></g></svg>