<svg xmlns="http://www.w3.org/2000/svg" xmlns:xlink="http://www.w3.org/1999/xlink" width="500" zoomAndPan="magnify" viewBox="0 0 375 112.499997" height="150" preserveAspectRatio="xMidYMid meet" version="1.0"><defs><clipPath id="fe011415ad"><path d="M 12.03125 0 L 362.96875 0 L 362.96875 112.003906 L 12.03125 112.003906 Z M 12.03125 0 " clip-rule="nonzero"/></clipPath></defs><g clip-path="url(#fe011415ad)"><path fill="#ffffff" d="M 12.03125 -119.46875 L 362.96875 -119.46875 L 362.96875 231.472656 L 12.03125 231.472656 Z M 12.03125 -119.46875 " fill-opacity="1" fill-rule="evenodd"/></g><path fill="#ffffff" d="M 154.65625 46.875 L 168.980469 46.875 L 168.980469 64.582031 L 154.65625 64.582031 Z M 154.65625 46.875 " fill-opacity="1" fill-rule="evenodd"/><path fill="#4f4d67" d="M 154.65625 46.875 L 168.980469 46.875 L 168.980469 50.851562 L 154.65625 50.851562 Z M 154.65625 60.601562 L 168.980469 60.601562 L 168.980469 64.582031 L 154.65625 64.582031 Z M 154.65625 60.601562 " fill-opacity="1" fill-rule="evenodd"/><path fill="#ca3432" d="M 168.980469 46.875 L 183.304688 46.875 L 183.304688 64.582031 L 168.980469 64.582031 Z M 168.980469 46.875 " fill-opacity="1" fill-rule="evenodd"/><path fill="#4f4d67" d="M 183.304688 46.875 L 168.980469 46.875 L 168.980469 50.851562 L 183.304688 50.851562 Z M 183.304688 60.601562 L 168.980469 60.601562 L 168.980469 64.582031 L 183.304688 64.582031 Z M 183.304688 60.601562 " fill-opacity="1" fill-rule="evenodd"/><path fill="#000000" d="M 20.730469 64.6875 L 20.730469 48.878906 L 14.828125 48.878906 L 14.828125 46.761719 L 29.007812 46.761719 L 29.007812 48.878906 L 23.109375 48.878906 L 23.109375 64.6875 Z M 44.558594 50.234375 C 45.136719 49.667969 45.796875 49.238281 46.546875 48.9375 C 47.296875 48.636719 48.074219 48.492188 48.882812 48.503906 C 50.0625 48.503906 51.125 48.804688 52.074219 49.40625 C 53.023438 50.003906 53.742188 50.847656 54.234375 51.9375 C 54.726562 53.023438 54.96875 54.296875 54.96875 55.757812 C 54.96875 58.0625 54.394531 59.84375 53.242188 61.097656 C 52.09375 62.351562 50.625 62.980469 48.84375 62.980469 C 47.097656 62.980469 45.644531 62.359375 44.484375 61.117188 C 43.324219 59.875 42.746094 58.175781 42.746094 56.015625 C 42.746094 53.3125 43.351562 51.386719 44.558594 50.234375 Z M 41.328125 60.441406 C 42 61.851562 43.003906 62.964844 44.34375 63.777344 C 45.667969 64.589844 47.171875 65 48.859375 65 C 50.402344 65.007812 51.851562 64.640625 53.203125 63.894531 C 54.546875 63.15625 55.585938 62.070312 56.316406 60.636719 C 57.050781 59.203125 57.414062 57.574219 57.414062 55.757812 C 57.414062 53.964844 57.066406 52.359375 56.371094 50.945312 C 55.695312 49.535156 54.683594 48.433594 53.339844 47.636719 C 52.011719 46.847656 50.523438 46.453125 48.871094 46.453125 C 46.347656 46.453125 44.289062 47.292969 42.691406 48.980469 C 41.097656 50.660156 40.300781 52.988281 40.300781 55.964844 C 40.300781 57.539062 40.644531 59.027344 41.328125 60.441406 Z M 70.441406 64.6875 L 70.441406 46.757812 L 73.988281 46.757812 L 78.238281 59.449219 C 78.628906 60.632812 78.914062 61.515625 79.09375 62.101562 C 79.300781 61.449219 79.621094 60.492188 80.054688 59.230469 L 84.382812 46.757812 L 87.550781 46.757812 L 87.550781 64.6875 L 85.269531 64.6875 L 85.269531 49.695312 L 80.03125 64.6875 L 77.894531 64.6875 L 72.71875 49.433594 L 72.71875 64.6875 Z M 101.304688 64.6875 L 101.304688 46.757812 L 104.855469 46.757812 L 109.101562 59.449219 C 109.496094 60.632812 109.78125 61.515625 109.960938 62.101562 C 110.167969 61.449219 110.488281 60.492188 110.921875 59.230469 L 115.253906 46.757812 L 118.417969 46.757812 L 118.417969 64.6875 L 116.136719 64.6875 L 116.136719 49.695312 L 110.898438 64.6875 L 108.761719 64.6875 L 103.585938 49.433594 L 103.585938 64.6875 Z M 137.289062 64.6875 L 137.289062 57.09375 L 130.382812 46.757812 L 133.234375 46.757812 L 136.769531 52.191406 C 137.417969 53.171875 138.035156 54.179688 138.609375 55.207031 C 139.160156 54.269531 139.816406 53.210938 140.578125 52.035156 L 144.046875 46.757812 L 146.808594 46.757812 L 139.671875 57.09375 L 139.671875 64.6875 Z M 194.945312 64.6875 L 194.945312 46.761719 L 197.324219 46.761719 L 197.324219 54.128906 L 206.609375 54.128906 L 206.609375 46.761719 L 208.996094 46.761719 L 208.996094 64.6875 L 206.609375 64.6875 L 206.609375 56.25 L 197.324219 56.25 L 197.324219 64.6875 Z M 220.855469 64.6875 L 220.855469 46.761719 L 223.234375 46.761719 L 223.234375 64.6875 Z M 234.800781 64.6875 L 234.800781 46.761719 L 237.183594 46.761719 L 237.183594 62.570312 L 246.015625 62.570312 L 246.015625 64.6875 Z M 256.429688 64.6875 L 256.429688 46.761719 L 268.554688 46.761719 L 268.554688 48.878906 L 258.808594 48.878906 L 258.808594 54.421875 L 267.25 54.421875 L 267.25 56.539062 L 258.808594 56.539062 L 258.808594 64.6875 Z M 279.558594 64.6875 L 279.558594 46.761719 L 281.9375 46.761719 L 281.9375 64.6875 Z M 301.976562 57.664062 L 301.976562 55.546875 L 309.570312 55.546875 L 309.570312 62.199219 C 308.480469 63.089844 307.28125 63.789062 305.96875 64.296875 C 304.738281 64.765625 303.46875 65 302.15625 65 C 300.398438 65 298.800781 64.621094 297.363281 63.871094 C 295.925781 63.128906 294.839844 62.039062 294.109375 60.59375 C 293.378906 59.167969 293.007812 57.574219 293.007812 55.808594 C 293.007812 54.066406 293.375 52.4375 294.105469 50.921875 C 294.835938 49.40625 295.882812 48.285156 297.25 47.550781 C 298.613281 46.816406 300.191406 46.449219 301.976562 46.449219 C 303.269531 46.449219 304.441406 46.660156 305.484375 47.078125 C 306.535156 47.5 307.351562 48.085938 307.949219 48.835938 C 308.542969 49.585938 308.996094 50.566406 309.304688 51.769531 L 307.171875 52.355469 C 306.902344 51.441406 306.570312 50.722656 306.167969 50.199219 C 305.769531 49.675781 305.199219 49.257812 304.460938 48.945312 C 303.667969 48.617188 302.847656 48.460938 301.992188 48.472656 C 300.90625 48.472656 299.96875 48.636719 299.183594 48.96875 C 298.390625 49.300781 297.753906 49.734375 297.273438 50.273438 C 296.792969 50.800781 296.414062 51.394531 296.140625 52.054688 C 295.671875 53.214844 295.445312 54.421875 295.457031 55.671875 C 295.457031 57.273438 295.730469 58.613281 296.28125 59.695312 C 296.832031 60.773438 297.628906 61.574219 298.679688 62.097656 C 299.734375 62.625 300.851562 62.886719 302.027344 62.882812 C 303.050781 62.882812 304.054688 62.683594 305.03125 62.285156 C 306.007812 61.890625 306.75 61.46875 307.253906 61.015625 L 307.253906 57.664062 Z M 320.679688 64.6875 L 320.679688 46.761719 L 333.582031 46.761719 L 333.582031 48.878906 L 323.058594 48.878906 L 323.058594 54.355469 L 332.898438 54.355469 L 332.898438 56.476562 L 323.058594 56.476562 L 323.058594 62.570312 L 334.011719 62.570312 L 334.011719 64.6875 Z M 347.199219 48.75 L 352.875 48.75 C 354.203125 48.75 355.179688 49.023438 355.796875 49.570312 C 356.410156 50.117188 356.71875 50.816406 356.71875 51.664062 C 356.71875 52.242188 356.558594 52.777344 356.242188 53.269531 C 355.902344 53.789062 355.4375 54.148438 354.847656 54.347656 C 354.234375 54.570312 353.386719 54.683594 352.304688 54.683594 L 347.199219 54.683594 Z M 347.199219 64.6875 L 347.199219 56.738281 L 349.953125 56.738281 C 350.5625 56.738281 351.003906 56.765625 351.273438 56.820312 C 351.640625 56.910156 352.003906 57.070312 352.359375 57.300781 C 352.710938 57.527344 353.113281 57.925781 353.5625 58.496094 C 354.011719 59.066406 354.582031 59.886719 355.277344 60.960938 L 357.644531 64.6875 L 360.609375 64.6875 L 357.507812 59.8125 C 356.953125 58.9375 356.300781 58.140625 355.542969 57.433594 C 355.214844 57.136719 354.742188 56.839844 354.113281 56.539062 C 355.835938 56.304688 357.105469 55.746094 357.929688 54.875 C 358.753906 54 359.164062 52.929688 359.164062 51.65625 C 359.164062 50.667969 358.914062 49.765625 358.421875 48.949219 C 357.953125 48.148438 357.289062 47.582031 356.425781 47.242188 C 355.59375 46.921875 354.378906 46.757812 352.78125 46.757812 L 344.824219 46.757812 L 344.824219 64.6875 Z M 347.199219 64.6875 " fill-opacity="1" fill-rule="evenodd"/></svg>